<mxfile host="app.diagrams.net" agent="Mozilla/5.0 (Windows NT 10.0; Win64; x64) AppleWebKit/537.36 (KHTML, like Gecko) Chrome/132.0.0.0 Safari/537.36" version="26.0.11">
  <diagram name="Page-1" id="nRcxpfiVRrhPHww_M6It">
    <mxGraphModel dx="1461" dy="626" grid="1" gridSize="10" guides="1" tooltips="1" connect="1" arrows="1" fold="1" page="1" pageScale="1" pageWidth="850" pageHeight="1100" math="0" shadow="0">
      <root>
        <mxCell id="0" />
        <mxCell id="1" parent="0" />
        <UserObject label="" plantUmlData="{&quot;data&quot;:&quot;@startuml Sequence Diagram - Xử lý Task đơn lẻ\n\nparticipant User\nparticipant APIGateway\nparticipant DeepSeekR1Service\nparticipant KafkaTaskQueue\nparticipant OpenAI_Consumer as OpenAIConsumer\nparticipant OpenAI_API as OpenAI_API\nparticipant KafkaResultQueue\n\nUser -&gt; APIGateway: Gửi yêu cầu Task\nactivate APIGateway\nAPIGateway -&gt; DeepSeekR1Service: Chuyển Task\nactivate DeepSeekR1Service\nDeepSeekR1Service -&gt; DeepSeekR1Service: Phân tích và xử lý Task\nDeepSeekR1Service -&gt; KafkaTaskQueue: Đẩy Task vào Task Queue\nactivate KafkaTaskQueue\nKafkaTaskQueue --&gt; DeepSeekR1Service: Ack\ndeactivate KafkaTaskQueue\ndeactivate DeepSeekR1Service\n\nKafkaTaskQueue -&gt; OpenAIConsumer: Task Message\nactivate OpenAIConsumer\nOpenAIConsumer -&gt; OpenAI_API: Gọi OpenAI API (gửi Task)\nactivate OpenAI_API\nOpenAI_API --&gt; OpenAIConsumer: Kết quả từ OpenAI API\ndeactivate OpenAI_API\nOpenAIConsumer -&gt; KafkaResultQueue: Đẩy kết quả vào Result Queue\nactivate KafkaResultQueue\nKafkaResultQueue --&gt; OpenAIConsumer: Ack\ndeactivate KafkaResultQueue\ndeactivate OpenAIConsumer\n\nKafkaResultQueue -&gt; DeepSeekR1Service: Result Message\nactivate DeepSeekR1Service\nDeepSeekR1Service -&gt; DeepSeekR1Service: Tổng hợp và đánh giá kết quả\nDeepSeekR1Service -&gt; APIGateway: Trả kết quả\nAPIGateway -&gt; User: Trả kết quả cho người dùng\ndeactivate DeepSeekR1Service\ndeactivate APIGateway\n\n@enduml&quot;,&quot;format&quot;:&quot;svg&quot;}" id="Q9uWnPhqrl7lab23Eq83-1">
          <mxCell style="shape=image;noLabel=1;verticalAlign=top;aspect=fixed;imageAspect=0;image=data:image/svg+xml,PD94bWwgdmVyc2lvbj0iMS4wIiBlbmNvZGluZz0idXMtYXNjaWkiIHN0YW5kYWxvbmU9Im5vIj8+PHN2ZyB4bWxucz0iaHR0cDovL3d3dy53My5vcmcvMjAwMC9zdmciIHhtbG5zOnhsaW5rPSJodHRwOi8vd3d3LnczLm9yZy8xOTk5L3hsaW5rIiBjb250ZW50U3R5bGVUeXBlPSJ0ZXh0L2NzcyIgaGVpZ2h0PSI1MDVweCIgcHJlc2VydmVBc3BlY3RSYXRpbz0ibm9uZSIgc3R5bGU9IndpZHRoOjEwNzdweDtoZWlnaHQ6NTA1cHg7YmFja2dyb3VuZDojRkZGRkZGOyIgdmVyc2lvbj0iMS4xIiB2aWV3Qm94PSIwIDAgMTA3NyA1MDUiIHdpZHRoPSIxMDc3cHgiIHpvb21BbmRQYW49Im1hZ25pZnkiPjxkZWZzLz48Zz48cmVjdCBmaWxsPSIjRkZGRkZGIiBoZWlnaHQ9IjM4OC44ODI4IiBzdHlsZT0ic3Ryb2tlOiMxODE4MTg7c3Ryb2tlLXdpZHRoOjEuMDsiIHdpZHRoPSIxMCIgeD0iMjI5IiB5PSI2NC44OTg0Ii8+PHJlY3QgZmlsbD0iI0ZGRkZGRiIgaGVpZ2h0PSI5Ni43NDIyIiBzdHlsZT0ic3Ryb2tlOiMxODE4MTg7c3Ryb2tlLXdpZHRoOjEuMDsiIHdpZHRoPSIxMCIgeD0iMzQ4IiB5PSI5Mi44MTI1Ii8+PHJlY3QgZmlsbD0iI0ZGRkZGRiIgaGVpZ2h0PSI5Ni43NDIyIiBzdHlsZT0ic3Ryb2tlOiMxODE4MTg7c3Ryb2tlLXdpZHRoOjEuMDsiIHdpZHRoPSIxMCIgeD0iMzQ4IiB5PSIzNTcuMDM5MSIvPjxyZWN0IGZpbGw9IiNGRkZGRkYiIGhlaWdodD0iMjcuOTE0MSIgc3R5bGU9InN0cm9rZTojMTgxODE4O3N0cm9rZS13aWR0aDoxLjA7IiB3aWR0aD0iMTAiIHg9IjU2NSIgeT0iMTYxLjY0MDYiLz48cmVjdCBmaWxsPSIjRkZGRkZGIiBoZWlnaHQ9IjExMS42NTYzIiBzdHlsZT0ic3Ryb2tlOiMxODE4MTg7c3Ryb2tlLXdpZHRoOjEuMDsiIHdpZHRoPSIxMCIgeD0iNjkxIiB5PSIyMTcuNDY4OCIvPjxyZWN0IGZpbGw9IiNGRkZGRkYiIGhlaWdodD0iMjcuOTE0MSIgc3R5bGU9InN0cm9rZTojMTgxODE4O3N0cm9rZS13aWR0aDoxLjA7IiB3aWR0aD0iMTAiIHg9Ijg4OCIgeT0iMjQ1LjM4MjgiLz48cmVjdCBmaWxsPSIjRkZGRkZGIiBoZWlnaHQ9IjI3LjkxNDEiIHN0eWxlPSJzdHJva2U6IzE4MTgxODtzdHJva2Utd2lkdGg6MS4wOyIgd2lkdGg9IjEwIiB4PSIxMDAzIiB5PSIzMDEuMjEwOSIvPjxsaW5lIHN0eWxlPSJzdHJva2U6IzE4MTgxODtzdHJva2Utd2lkdGg6MC41O3N0cm9rZS1kYXNoYXJyYXk6NS4wLDUuMDsiIHgxPSIyNiIgeDI9IjI2IiB5MT0iMzQuOTg0NCIgeTI9IjQ3MS43ODEzIi8+PGxpbmUgc3R5bGU9InN0cm9rZTojMTgxODE4O3N0cm9rZS13aWR0aDowLjU7c3Ryb2tlLWRhc2hhcnJheTo1LjAsNS4wOyIgeDE9IjIzMy41IiB4Mj0iMjMzLjUiIHkxPSIzNC45ODQ0IiB5Mj0iNDcxLjc4MTMiLz48bGluZSBzdHlsZT0ic3Ryb2tlOiMxODE4MTg7c3Ryb2tlLXdpZHRoOjAuNTtzdHJva2UtZGFzaGFycmF5OjUuMCw1LjA7IiB4MT0iMzUyLjUiIHgyPSIzNTIuNSIgeTE9IjM0Ljk4NDQiIHkyPSI0NzEuNzgxMyIvPjxsaW5lIHN0eWxlPSJzdHJva2U6IzE4MTgxODtzdHJva2Utd2lkdGg6MC41O3N0cm9rZS1kYXNoYXJyYXk6NS4wLDUuMDsiIHgxPSI1NzAiIHgyPSI1NzAiIHkxPSIzNC45ODQ0IiB5Mj0iNDcxLjc4MTMiLz48bGluZSBzdHlsZT0ic3Ryb2tlOiMxODE4MTg7c3Ryb2tlLXdpZHRoOjAuNTtzdHJva2UtZGFzaGFycmF5OjUuMCw1LjA7IiB4MT0iNjk2IiB4Mj0iNjk2IiB5MT0iMzQuOTg0NCIgeTI9IjQ3MS43ODEzIi8+PGxpbmUgc3R5bGU9InN0cm9rZTojMTgxODE4O3N0cm9rZS13aWR0aDowLjU7c3Ryb2tlLWRhc2hhcnJheTo1LjAsNS4wOyIgeDE9Ijg5MyIgeDI9Ijg5MyIgeTE9IjM0Ljk4NDQiIHkyPSI0NzEuNzgxMyIvPjxsaW5lIHN0eWxlPSJzdHJva2U6IzE4MTgxODtzdHJva2Utd2lkdGg6MC41O3N0cm9rZS1kYXNoYXJyYXk6NS4wLDUuMDsiIHgxPSIxMDA4IiB4Mj0iMTAwOCIgeTE9IjM0Ljk4NDQiIHkyPSI0NzEuNzgxMyIvPjxyZWN0IGZpbGw9IiNFMkUyRjAiIGhlaWdodD0iMjguOTg0NCIgcng9IjIuNSIgcnk9IjIuNSIgc3R5bGU9InN0cm9rZTojMTgxODE4O3N0cm9rZS13aWR0aDowLjU7IiB3aWR0aD0iNDIiIHg9IjUiIHk9IjUiLz48dGV4dCBmaWxsPSIjMDAwMDAwIiBmb250LWZhbWlseT0ic2Fucy1zZXJpZiIgZm9udC1zaXplPSIxNCIgbGVuZ3RoQWRqdXN0PSJzcGFjaW5nIiB0ZXh0TGVuZ3RoPSIyOCIgeD0iMTIiIHk9IjI1LjIzNDQiPlVzZXI8L3RleHQ+PHJlY3QgZmlsbD0iI0UyRTJGMCIgaGVpZ2h0PSIyOC45ODQ0IiByeD0iMi41IiByeT0iMi41IiBzdHlsZT0ic3Ryb2tlOiMxODE4MTg7c3Ryb2tlLXdpZHRoOjAuNTsiIHdpZHRoPSI0MiIgeD0iNSIgeT0iNDcwLjc4MTMiLz48dGV4dCBmaWxsPSIjMDAwMDAwIiBmb250LWZhbWlseT0ic2Fucy1zZXJpZiIgZm9udC1zaXplPSIxNCIgbGVuZ3RoQWRqdXN0PSJzcGFjaW5nIiB0ZXh0TGVuZ3RoPSIyOCIgeD0iMTIiIHk9IjQ5MS4wMTU2Ij5Vc2VyPC90ZXh0PjxyZWN0IGZpbGw9IiNFMkUyRjAiIGhlaWdodD0iMjguOTg0NCIgcng9IjIuNSIgcnk9IjIuNSIgc3R5bGU9InN0cm9rZTojMTgxODE4O3N0cm9rZS13aWR0aDowLjU7IiB3aWR0aD0iODUiIHg9IjE5MS41IiB5PSI1Ii8+PHRleHQgZmlsbD0iIzAwMDAwMCIgZm9udC1mYW1pbHk9InNhbnMtc2VyaWYiIGZvbnQtc2l6ZT0iMTQiIGxlbmd0aEFkanVzdD0ic3BhY2luZyIgdGV4dExlbmd0aD0iNzEiIHg9IjE5OC41IiB5PSIyNS4yMzQ0Ij5BUElHYXRld2F5PC90ZXh0PjxyZWN0IGZpbGw9IiNFMkUyRjAiIGhlaWdodD0iMjguOTg0NCIgcng9IjIuNSIgcnk9IjIuNSIgc3R5bGU9InN0cm9rZTojMTgxODE4O3N0cm9rZS13aWR0aDowLjU7IiB3aWR0aD0iODUiIHg9IjE5MS41IiB5PSI0NzAuNzgxMyIvPjx0ZXh0IGZpbGw9IiMwMDAwMDAiIGZvbnQtZmFtaWx5PSJzYW5zLXNlcmlmIiBmb250LXNpemU9IjE0IiBsZW5ndGhBZGp1c3Q9InNwYWNpbmciIHRleHRMZW5ndGg9IjcxIiB4PSIxOTguNSIgeT0iNDkxLjAxNTYiPkFQSUdhdGV3YXk8L3RleHQ+PHJlY3QgZmlsbD0iI0UyRTJGMCIgaGVpZ2h0PSIyOC45ODQ0IiByeD0iMi41IiByeT0iMi41IiBzdHlsZT0ic3Ryb2tlOiMxODE4MTg7c3Ryb2tlLXdpZHRoOjAuNTsiIHdpZHRoPSIxMzMiIHg9IjI4Ni41IiB5PSI1Ii8+PHRleHQgZmlsbD0iIzAwMDAwMCIgZm9udC1mYW1pbHk9InNhbnMtc2VyaWYiIGZvbnQtc2l6ZT0iMTQiIGxlbmd0aEFkanVzdD0ic3BhY2luZyIgdGV4dExlbmd0aD0iMTE5IiB4PSIyOTMuNSIgeT0iMjUuMjM0NCI+RGVlcFNlZWtSMVNlcnZpY2U8L3RleHQ+PHJlY3QgZmlsbD0iI0UyRTJGMCIgaGVpZ2h0PSIyOC45ODQ0IiByeD0iMi41IiByeT0iMi41IiBzdHlsZT0ic3Ryb2tlOiMxODE4MTg7c3Ryb2tlLXdpZHRoOjAuNTsiIHdpZHRoPSIxMzMiIHg9IjI4Ni41IiB5PSI0NzAuNzgxMyIvPjx0ZXh0IGZpbGw9IiMwMDAwMDAiIGZvbnQtZmFtaWx5PSJzYW5zLXNlcmlmIiBmb250LXNpemU9IjE0IiBsZW5ndGhBZGp1c3Q9InNwYWNpbmciIHRleHRMZW5ndGg9IjExOSIgeD0iMjkzLjUiIHk9IjQ5MS4wMTU2Ij5EZWVwU2Vla1IxU2VydmljZTwvdGV4dD48cmVjdCBmaWxsPSIjRTJFMkYwIiBoZWlnaHQ9IjI4Ljk4NDQiIHJ4PSIyLjUiIHJ5PSIyLjUiIHN0eWxlPSJzdHJva2U6IzE4MTgxODtzdHJva2Utd2lkdGg6MC41OyIgd2lkdGg9IjExMiIgeD0iNTE0IiB5PSI1Ii8+PHRleHQgZmlsbD0iIzAwMDAwMCIgZm9udC1mYW1pbHk9InNhbnMtc2VyaWYiIGZvbnQtc2l6ZT0iMTQiIGxlbmd0aEFkanVzdD0ic3BhY2luZyIgdGV4dExlbmd0aD0iOTgiIHg9IjUyMSIgeT0iMjUuMjM0NCI+S2Fma2FUYXNrUXVldWU8L3RleHQ+PHJlY3QgZmlsbD0iI0UyRTJGMCIgaGVpZ2h0PSIyOC45ODQ0IiByeD0iMi41IiByeT0iMi41IiBzdHlsZT0ic3Ryb2tlOiMxODE4MTg7c3Ryb2tlLXdpZHRoOjAuNTsiIHdpZHRoPSIxMTIiIHg9IjUxNCIgeT0iNDcwLjc4MTMiLz48dGV4dCBmaWxsPSIjMDAwMDAwIiBmb250LWZhbWlseT0ic2Fucy1zZXJpZiIgZm9udC1zaXplPSIxNCIgbGVuZ3RoQWRqdXN0PSJzcGFjaW5nIiB0ZXh0TGVuZ3RoPSI5OCIgeD0iNTIxIiB5PSI0OTEuMDE1NiI+S2Fma2FUYXNrUXVldWU8L3RleHQ+PHJlY3QgZmlsbD0iI0UyRTJGMCIgaGVpZ2h0PSIyOC45ODQ0IiByeD0iMi41IiByeT0iMi41IiBzdHlsZT0ic3Ryb2tlOiMxODE4MTg7c3Ryb2tlLXdpZHRoOjAuNTsiIHdpZHRoPSIxMjAiIHg9IjYzNiIgeT0iNSIvPjx0ZXh0IGZpbGw9IiMwMDAwMDAiIGZvbnQtZmFtaWx5PSJzYW5zLXNlcmlmIiBmb250LXNpemU9IjE0IiBsZW5ndGhBZGp1c3Q9InNwYWNpbmciIHRleHRMZW5ndGg9IjEwNiIgeD0iNjQzIiB5PSIyNS4yMzQ0Ij5PcGVuQUlfQ29uc3VtZXI8L3RleHQ+PHJlY3QgZmlsbD0iI0UyRTJGMCIgaGVpZ2h0PSIyOC45ODQ0IiByeD0iMi41IiByeT0iMi41IiBzdHlsZT0ic3Ryb2tlOiMxODE4MTg7c3Ryb2tlLXdpZHRoOjAuNTsiIHdpZHRoPSIxMjAiIHg9IjYzNiIgeT0iNDcwLjc4MTMiLz48dGV4dCBmaWxsPSIjMDAwMDAwIiBmb250LWZhbWlseT0ic2Fucy1zZXJpZiIgZm9udC1zaXplPSIxNCIgbGVuZ3RoQWRqdXN0PSJzcGFjaW5nIiB0ZXh0TGVuZ3RoPSIxMDYiIHg9IjY0MyIgeT0iNDkxLjAxNTYiPk9wZW5BSV9Db25zdW1lcjwvdGV4dD48cmVjdCBmaWxsPSIjRTJFMkYwIiBoZWlnaHQ9IjI4Ljk4NDQiIHJ4PSIyLjUiIHJ5PSIyLjUiIHN0eWxlPSJzdHJva2U6IzE4MTgxODtzdHJva2Utd2lkdGg6MC41OyIgd2lkdGg9Ijg0IiB4PSI4NTEiIHk9IjUiLz48dGV4dCBmaWxsPSIjMDAwMDAwIiBmb250LWZhbWlseT0ic2Fucy1zZXJpZiIgZm9udC1zaXplPSIxNCIgbGVuZ3RoQWRqdXN0PSJzcGFjaW5nIiB0ZXh0TGVuZ3RoPSI3MCIgeD0iODU4IiB5PSIyNS4yMzQ0Ij5PcGVuQUlfQVBJPC90ZXh0PjxyZWN0IGZpbGw9IiNFMkUyRjAiIGhlaWdodD0iMjguOTg0NCIgcng9IjIuNSIgcnk9IjIuNSIgc3R5bGU9InN0cm9rZTojMTgxODE4O3N0cm9rZS13aWR0aDowLjU7IiB3aWR0aD0iODQiIHg9Ijg1MSIgeT0iNDcwLjc4MTMiLz48dGV4dCBmaWxsPSIjMDAwMDAwIiBmb250LWZhbWlseT0ic2Fucy1zZXJpZiIgZm9udC1zaXplPSIxNCIgbGVuZ3RoQWRqdXN0PSJzcGFjaW5nIiB0ZXh0TGVuZ3RoPSI3MCIgeD0iODU4IiB5PSI0OTEuMDE1NiI+T3BlbkFJX0FQSTwvdGV4dD48cmVjdCBmaWxsPSIjRTJFMkYwIiBoZWlnaHQ9IjI4Ljk4NDQiIHJ4PSIyLjUiIHJ5PSIyLjUiIHN0eWxlPSJzdHJva2U6IzE4MTgxODtzdHJva2Utd2lkdGg6MC41OyIgd2lkdGg9IjEyNiIgeD0iOTQ1IiB5PSI1Ii8+PHRleHQgZmlsbD0iIzAwMDAwMCIgZm9udC1mYW1pbHk9InNhbnMtc2VyaWYiIGZvbnQtc2l6ZT0iMTQiIGxlbmd0aEFkanVzdD0ic3BhY2luZyIgdGV4dExlbmd0aD0iMTEyIiB4PSI5NTIiIHk9IjI1LjIzNDQiPkthZmthUmVzdWx0UXVldWU8L3RleHQ+PHJlY3QgZmlsbD0iI0UyRTJGMCIgaGVpZ2h0PSIyOC45ODQ0IiByeD0iMi41IiByeT0iMi41IiBzdHlsZT0ic3Ryb2tlOiMxODE4MTg7c3Ryb2tlLXdpZHRoOjAuNTsiIHdpZHRoPSIxMjYiIHg9Ijk0NSIgeT0iNDcwLjc4MTMiLz48dGV4dCBmaWxsPSIjMDAwMDAwIiBmb250LWZhbWlseT0ic2Fucy1zZXJpZiIgZm9udC1zaXplPSIxNCIgbGVuZ3RoQWRqdXN0PSJzcGFjaW5nIiB0ZXh0TGVuZ3RoPSIxMTIiIHg9Ijk1MiIgeT0iNDkxLjAxNTYiPkthZmthUmVzdWx0UXVldWU8L3RleHQ+PHJlY3QgZmlsbD0iI0ZGRkZGRiIgaGVpZ2h0PSIzODguODgyOCIgc3R5bGU9InN0cm9rZTojMTgxODE4O3N0cm9rZS13aWR0aDoxLjA7IiB3aWR0aD0iMTAiIHg9IjIyOSIgeT0iNjQuODk4NCIvPjxyZWN0IGZpbGw9IiNGRkZGRkYiIGhlaWdodD0iOTYuNzQyMiIgc3R5bGU9InN0cm9rZTojMTgxODE4O3N0cm9rZS13aWR0aDoxLjA7IiB3aWR0aD0iMTAiIHg9IjM0OCIgeT0iOTIuODEyNSIvPjxyZWN0IGZpbGw9IiNGRkZGRkYiIGhlaWdodD0iOTYuNzQyMiIgc3R5bGU9InN0cm9rZTojMTgxODE4O3N0cm9rZS13aWR0aDoxLjA7IiB3aWR0aD0iMTAiIHg9IjM0OCIgeT0iMzU3LjAzOTEiLz48cmVjdCBmaWxsPSIjRkZGRkZGIiBoZWlnaHQ9IjI3LjkxNDEiIHN0eWxlPSJzdHJva2U6IzE4MTgxODtzdHJva2Utd2lkdGg6MS4wOyIgd2lkdGg9IjEwIiB4PSI1NjUiIHk9IjE2MS42NDA2Ii8+PHJlY3QgZmlsbD0iI0ZGRkZGRiIgaGVpZ2h0PSIxMTEuNjU2MyIgc3R5bGU9InN0cm9rZTojMTgxODE4O3N0cm9rZS13aWR0aDoxLjA7IiB3aWR0aD0iMTAiIHg9IjY5MSIgeT0iMjE3LjQ2ODgiLz48cmVjdCBmaWxsPSIjRkZGRkZGIiBoZWlnaHQ9IjI3LjkxNDEiIHN0eWxlPSJzdHJva2U6IzE4MTgxODtzdHJva2Utd2lkdGg6MS4wOyIgd2lkdGg9IjEwIiB4PSI4ODgiIHk9IjI0NS4zODI4Ii8+PHJlY3QgZmlsbD0iI0ZGRkZGRiIgaGVpZ2h0PSIyNy45MTQxIiBzdHlsZT0ic3Ryb2tlOiMxODE4MTg7c3Ryb2tlLXdpZHRoOjEuMDsiIHdpZHRoPSIxMCIgeD0iMTAwMyIgeT0iMzAxLjIxMDkiLz48cG9seWdvbiBmaWxsPSIjMTgxODE4IiBwb2ludHM9IjIxNyw2MC44OTg0LDIyNyw2NC44OTg0LDIxNyw2OC44OTg0LDIyMSw2NC44OTg0IiBzdHlsZT0ic3Ryb2tlOiMxODE4MTg7c3Ryb2tlLXdpZHRoOjEuMDsiLz48bGluZSBzdHlsZT0ic3Ryb2tlOiMxODE4MTg7c3Ryb2tlLXdpZHRoOjEuMDsiIHgxPSIyNiIgeDI9IjIyMyIgeTE9IjY0Ljg5ODQiIHkyPSI2NC44OTg0Ii8+PHRleHQgZmlsbD0iIzAwMDAwMCIgZm9udC1mYW1pbHk9InNhbnMtc2VyaWYiIGZvbnQtc2l6ZT0iMTMiIGxlbmd0aEFkanVzdD0ic3BhY2luZyIgdGV4dExlbmd0aD0iMTEwIiB4PSIzMyIgeT0iNjEuMjczNCI+RyYjNzkxNztpIHkmIzIzNDt1IGMmIzc4NDc7dSBUYXNrPC90ZXh0Pjxwb2x5Z29uIGZpbGw9IiMxODE4MTgiIHBvaW50cz0iMzM2LDg4LjgxMjUsMzQ2LDkyLjgxMjUsMzM2LDk2LjgxMjUsMzQwLDkyLjgxMjUiIHN0eWxlPSJzdHJva2U6IzE4MTgxODtzdHJva2Utd2lkdGg6MS4wOyIvPjxsaW5lIHN0eWxlPSJzdHJva2U6IzE4MTgxODtzdHJva2Utd2lkdGg6MS4wOyIgeDE9IjIzOSIgeDI9IjM0MiIgeTE9IjkyLjgxMjUiIHkyPSI5Mi44MTI1Ii8+PHRleHQgZmlsbD0iIzAwMDAwMCIgZm9udC1mYW1pbHk9InNhbnMtc2VyaWYiIGZvbnQtc2l6ZT0iMTMiIGxlbmd0aEFkanVzdD0ic3BhY2luZyIgdGV4dExlbmd0aD0iNzYiIHg9IjI0NiIgeT0iODkuMTg3NSI+Q2h1eSYjNzg3NTtuIFRhc2s8L3RleHQ+PGxpbmUgc3R5bGU9InN0cm9rZTojMTgxODE4O3N0cm9rZS13aWR0aDoxLjA7IiB4MT0iMzU4IiB4Mj0iNDAwIiB5MT0iMTIwLjcyNjYiIHkyPSIxMjAuNzI2NiIvPjxsaW5lIHN0eWxlPSJzdHJva2U6IzE4MTgxODtzdHJva2Utd2lkdGg6MS4wOyIgeDE9IjQwMCIgeDI9IjQwMCIgeTE9IjEyMC43MjY2IiB5Mj0iMTMzLjcyNjYiLz48bGluZSBzdHlsZT0ic3Ryb2tlOiMxODE4MTg7c3Ryb2tlLXdpZHRoOjEuMDsiIHgxPSIzNTkiIHgyPSI0MDAiIHkxPSIxMzMuNzI2NiIgeTI9IjEzMy43MjY2Ii8+PHBvbHlnb24gZmlsbD0iIzE4MTgxOCIgcG9pbnRzPSIzNjksMTI5LjcyNjYsMzU5LDEzMy43MjY2LDM2OSwxMzcuNzI2NiwzNjUsMTMzLjcyNjYiIHN0eWxlPSJzdHJva2U6IzE4MTgxODtzdHJva2Utd2lkdGg6MS4wOyIvPjx0ZXh0IGZpbGw9IiMwMDAwMDAiIGZvbnQtZmFtaWx5PSJzYW5zLXNlcmlmIiBmb250LXNpemU9IjEzIiBsZW5ndGhBZGp1c3Q9InNwYWNpbmciIHRleHRMZW5ndGg9IjE1NyIgeD0iMzY1IiB5PSIxMTcuMTAxNiI+UGgmIzIyNjtuIHQmIzIzNztjaCB2JiMyMjQ7IHgmIzc5MTc7IGwmIzI1MzsgVGFzazwvdGV4dD48cG9seWdvbiBmaWxsPSIjMTgxODE4IiBwb2ludHM9IjU1MywxNTcuNjQwNiw1NjMsMTYxLjY0MDYsNTUzLDE2NS42NDA2LDU1NywxNjEuNjQwNiIgc3R5bGU9InN0cm9rZTojMTgxODE4O3N0cm9rZS13aWR0aDoxLjA7Ii8+PGxpbmUgc3R5bGU9InN0cm9rZTojMTgxODE4O3N0cm9rZS13aWR0aDoxLjA7IiB4MT0iMzU4IiB4Mj0iNTU5IiB5MT0iMTYxLjY0MDYiIHkyPSIxNjEuNjQwNiIvPjx0ZXh0IGZpbGw9IiMwMDAwMDAiIGZvbnQtZmFtaWx5PSJzYW5zLXNlcmlmIiBmb250LXNpemU9IjEzIiBsZW5ndGhBZGp1c3Q9InNwYWNpbmciIHRleHRMZW5ndGg9IjE1OSIgeD0iMzY1IiB5PSIxNTguMDE1NiI+JiMyNzI7JiM3ODQ5O3kgVGFzayB2JiMyMjQ7byBUYXNrIFF1ZXVlPC90ZXh0Pjxwb2x5Z29uIGZpbGw9IiMxODE4MTgiIHBvaW50cz0iMzY0LDE4NS41NTQ3LDM1NCwxODkuNTU0NywzNjQsMTkzLjU1NDcsMzYwLDE4OS41NTQ3IiBzdHlsZT0ic3Ryb2tlOiMxODE4MTg7c3Ryb2tlLXdpZHRoOjEuMDsiLz48bGluZSBzdHlsZT0ic3Ryb2tlOiMxODE4MTg7c3Ryb2tlLXdpZHRoOjEuMDtzdHJva2UtZGFzaGFycmF5OjIuMCwyLjA7IiB4MT0iMzU4IiB4Mj0iNTY5IiB5MT0iMTg5LjU1NDciIHkyPSIxODkuNTU0NyIvPjx0ZXh0IGZpbGw9IiMwMDAwMDAiIGZvbnQtZmFtaWx5PSJzYW5zLXNlcmlmIiBmb250LXNpemU9IjEzIiBsZW5ndGhBZGp1c3Q9InNwYWNpbmciIHRleHRMZW5ndGg9IjIxIiB4PSIzNzAiIHk9IjE4NS45Mjk3Ij5BY2s8L3RleHQ+PHBvbHlnb24gZmlsbD0iIzE4MTgxOCIgcG9pbnRzPSI2NzksMjEzLjQ2ODgsNjg5LDIxNy40Njg4LDY3OSwyMjEuNDY4OCw2ODMsMjE3LjQ2ODgiIHN0eWxlPSJzdHJva2U6IzE4MTgxODtzdHJva2Utd2lkdGg6MS4wOyIvPjxsaW5lIHN0eWxlPSJzdHJva2U6IzE4MTgxODtzdHJva2Utd2lkdGg6MS4wOyIgeDE9IjU3MCIgeDI9IjY4NSIgeTE9IjIxNy40Njg4IiB5Mj0iMjE3LjQ2ODgiLz48dGV4dCBmaWxsPSIjMDAwMDAwIiBmb250LWZhbWlseT0ic2Fucy1zZXJpZiIgZm9udC1zaXplPSIxMyIgbGVuZ3RoQWRqdXN0PSJzcGFjaW5nIiB0ZXh0TGVuZ3RoPSI4MyIgeD0iNTc3IiB5PSIyMTMuODQzOCI+VGFzayBNZXNzYWdlPC90ZXh0Pjxwb2x5Z29uIGZpbGw9IiMxODE4MTgiIHBvaW50cz0iODc2LDI0MS4zODI4LDg4NiwyNDUuMzgyOCw4NzYsMjQ5LjM4MjgsODgwLDI0NS4zODI4IiBzdHlsZT0ic3Ryb2tlOiMxODE4MTg7c3Ryb2tlLXdpZHRoOjEuMDsiLz48bGluZSBzdHlsZT0ic3Ryb2tlOiMxODE4MTg7c3Ryb2tlLXdpZHRoOjEuMDsiIHgxPSI3MDEiIHgyPSI4ODIiIHkxPSIyNDUuMzgyOCIgeTI9IjI0NS4zODI4Ii8+PHRleHQgZmlsbD0iIzAwMDAwMCIgZm9udC1mYW1pbHk9InNhbnMtc2VyaWYiIGZvbnQtc2l6ZT0iMTMiIGxlbmd0aEFkanVzdD0ic3BhY2luZyIgdGV4dExlbmd0aD0iMTY4IiB4PSI3MDgiIHk9IjI0MS43NTc4Ij5HJiM3ODg1O2kgT3BlbkFJIEFQSSAoZyYjNzkxNztpIFRhc2spPC90ZXh0Pjxwb2x5Z29uIGZpbGw9IiMxODE4MTgiIHBvaW50cz0iNzEyLDI2OS4yOTY5LDcwMiwyNzMuMjk2OSw3MTIsMjc3LjI5NjksNzA4LDI3My4yOTY5IiBzdHlsZT0ic3Ryb2tlOiMxODE4MTg7c3Ryb2tlLXdpZHRoOjEuMDsiLz48bGluZSBzdHlsZT0ic3Ryb2tlOiMxODE4MTg7c3Ryb2tlLXdpZHRoOjEuMDtzdHJva2UtZGFzaGFycmF5OjIuMCwyLjA7IiB4MT0iNzA2IiB4Mj0iODkyIiB5MT0iMjczLjI5NjkiIHkyPSIyNzMuMjk2OSIvPjx0ZXh0IGZpbGw9IiMwMDAwMDAiIGZvbnQtZmFtaWx5PSJzYW5zLXNlcmlmIiBmb250LXNpemU9IjEzIiBsZW5ndGhBZGp1c3Q9InNwYWNpbmciIHRleHRMZW5ndGg9IjE0MyIgeD0iNzE4IiB5PSIyNjkuNjcxOSI+SyYjNzg3MTt0IHF1JiM3ODQzOyB0JiM3OTE1OyBPcGVuQUkgQVBJPC90ZXh0Pjxwb2x5Z29uIGZpbGw9IiMxODE4MTgiIHBvaW50cz0iOTkxLDI5Ny4yMTA5LDEwMDEsMzAxLjIxMDksOTkxLDMwNS4yMTA5LDk5NSwzMDEuMjEwOSIgc3R5bGU9InN0cm9rZTojMTgxODE4O3N0cm9rZS13aWR0aDoxLjA7Ii8+PGxpbmUgc3R5bGU9InN0cm9rZTojMTgxODE4O3N0cm9rZS13aWR0aDoxLjA7IiB4MT0iNzAxIiB4Mj0iOTk3IiB5MT0iMzAxLjIxMDkiIHkyPSIzMDEuMjEwOSIvPjx0ZXh0IGZpbGw9IiMwMDAwMDAiIGZvbnQtZmFtaWx5PSJzYW5zLXNlcmlmIiBmb250LXNpemU9IjEzIiBsZW5ndGhBZGp1c3Q9InNwYWNpbmciIHRleHRMZW5ndGg9IjE5MyIgeD0iNzA4IiB5PSIyOTcuNTg1OSI+JiMyNzI7JiM3ODQ5O3kgayYjNzg3MTt0IHF1JiM3ODQzOyB2JiMyMjQ7byBSZXN1bHQgUXVldWU8L3RleHQ+PHBvbHlnb24gZmlsbD0iIzE4MTgxOCIgcG9pbnRzPSI3MDcsMzI1LjEyNSw2OTcsMzI5LjEyNSw3MDcsMzMzLjEyNSw3MDMsMzI5LjEyNSIgc3R5bGU9InN0cm9rZTojMTgxODE4O3N0cm9rZS13aWR0aDoxLjA7Ii8+PGxpbmUgc3R5bGU9InN0cm9rZTojMTgxODE4O3N0cm9rZS13aWR0aDoxLjA7c3Ryb2tlLWRhc2hhcnJheToyLjAsMi4wOyIgeDE9IjcwMSIgeDI9IjEwMDciIHkxPSIzMjkuMTI1IiB5Mj0iMzI5LjEyNSIvPjx0ZXh0IGZpbGw9IiMwMDAwMDAiIGZvbnQtZmFtaWx5PSJzYW5zLXNlcmlmIiBmb250LXNpemU9IjEzIiBsZW5ndGhBZGp1c3Q9InNwYWNpbmciIHRleHRMZW5ndGg9IjIxIiB4PSI3MTMiIHk9IjMyNS41Ij5BY2s8L3RleHQ+PHBvbHlnb24gZmlsbD0iIzE4MTgxOCIgcG9pbnRzPSIzNjksMzUzLjAzOTEsMzU5LDM1Ny4wMzkxLDM2OSwzNjEuMDM5MSwzNjUsMzU3LjAzOTEiIHN0eWxlPSJzdHJva2U6IzE4MTgxODtzdHJva2Utd2lkdGg6MS4wOyIvPjxsaW5lIHN0eWxlPSJzdHJva2U6IzE4MTgxODtzdHJva2Utd2lkdGg6MS4wOyIgeDE9IjM2MyIgeDI9IjEwMDciIHkxPSIzNTcuMDM5MSIgeTI9IjM1Ny4wMzkxIi8+PHRleHQgZmlsbD0iIzAwMDAwMCIgZm9udC1mYW1pbHk9InNhbnMtc2VyaWYiIGZvbnQtc2l6ZT0iMTMiIGxlbmd0aEFkanVzdD0ic3BhY2luZyIgdGV4dExlbmd0aD0iOTYiIHg9IjM3NSIgeT0iMzUzLjQxNDEiPlJlc3VsdCBNZXNzYWdlPC90ZXh0PjxsaW5lIHN0eWxlPSJzdHJva2U6IzE4MTgxODtzdHJva2Utd2lkdGg6MS4wOyIgeDE9IjM1OCIgeDI9IjQwMCIgeTE9IjM4NC45NTMxIiB5Mj0iMzg0Ljk1MzEiLz48bGluZSBzdHlsZT0ic3Ryb2tlOiMxODE4MTg7c3Ryb2tlLXdpZHRoOjEuMDsiIHgxPSI0MDAiIHgyPSI0MDAiIHkxPSIzODQuOTUzMSIgeTI9IjM5Ny45NTMxIi8+PGxpbmUgc3R5bGU9InN0cm9rZTojMTgxODE4O3N0cm9rZS13aWR0aDoxLjA7IiB4MT0iMzU5IiB4Mj0iNDAwIiB5MT0iMzk3Ljk1MzEiIHkyPSIzOTcuOTUzMSIvPjxwb2x5Z29uIGZpbGw9IiMxODE4MTgiIHBvaW50cz0iMzY5LDM5My45NTMxLDM1OSwzOTcuOTUzMSwzNjksNDAxLjk1MzEsMzY1LDM5Ny45NTMxIiBzdHlsZT0ic3Ryb2tlOiMxODE4MTg7c3Ryb2tlLXdpZHRoOjEuMDsiLz48dGV4dCBmaWxsPSIjMDAwMDAwIiBmb250LWZhbWlseT0ic2Fucy1zZXJpZiIgZm9udC1zaXplPSIxMyIgbGVuZ3RoQWRqdXN0PSJzcGFjaW5nIiB0ZXh0TGVuZ3RoPSIxOTMiIHg9IjM2NSIgeT0iMzgxLjMyODEiPlQmIzc4OTM7bmcgaCYjNzkwNztwIHYmIzIyNDsgJiMyNzM7JiMyMjU7bmggZ2kmIzIyNTsgayYjNzg3MTt0IHF1JiM3ODQzOzwvdGV4dD48cG9seWdvbiBmaWxsPSIjMTgxODE4IiBwb2ludHM9IjI1MCw0MjEuODY3MiwyNDAsNDI1Ljg2NzIsMjUwLDQyOS44NjcyLDI0Niw0MjUuODY3MiIgc3R5bGU9InN0cm9rZTojMTgxODE4O3N0cm9rZS13aWR0aDoxLjA7Ii8+PGxpbmUgc3R5bGU9InN0cm9rZTojMTgxODE4O3N0cm9rZS13aWR0aDoxLjA7IiB4MT0iMjQ0IiB4Mj0iMzQ3IiB5MT0iNDI1Ljg2NzIiIHkyPSI0MjUuODY3MiIvPjx0ZXh0IGZpbGw9IiMwMDAwMDAiIGZvbnQtZmFtaWx5PSJzYW5zLXNlcmlmIiBmb250LXNpemU9IjEzIiBsZW5ndGhBZGp1c3Q9InNwYWNpbmciIHRleHRMZW5ndGg9Ijc1IiB4PSIyNTYiIHk9IjQyMi4yNDIyIj5UciYjNzg0MzsgayYjNzg3MTt0IHF1JiM3ODQzOzwvdGV4dD48cG9seWdvbiBmaWxsPSIjMTgxODE4IiBwb2ludHM9IjM3LDQ0OS43ODEzLDI3LDQ1My43ODEzLDM3LDQ1Ny43ODEzLDMzLDQ1My43ODEzIiBzdHlsZT0ic3Ryb2tlOiMxODE4MTg7c3Ryb2tlLXdpZHRoOjEuMDsiLz48bGluZSBzdHlsZT0ic3Ryb2tlOiMxODE4MTg7c3Ryb2tlLXdpZHRoOjEuMDsiIHgxPSIzMSIgeDI9IjIzMyIgeTE9IjQ1My43ODEzIiB5Mj0iNDUzLjc4MTMiLz48dGV4dCBmaWxsPSIjMDAwMDAwIiBmb250LWZhbWlseT0ic2Fucy1zZXJpZiIgZm9udC1zaXplPSIxMyIgbGVuZ3RoQWRqdXN0PSJzcGFjaW5nIiB0ZXh0TGVuZ3RoPSIxNzkiIHg9IjQzIiB5PSI0NTAuMTU2MyI+VHImIzc4NDM7IGsmIzc4NzE7dCBxdSYjNzg0MzsgY2hvIG5nJiM0MzI7JiM3OTAxO2kgZCYjMjQ5O25nPC90ZXh0PjwhLS1TUkM9W2RMSW5KaUNtNER0cDVKVjJxODRyR3dNZ0k1TEw4S2ZSUGNJYjloNUl0OTNPWFNwQ0kzMG04YjR3ODQxOGgySDIzQWR1M195OVRMOFE5dE9Qc0VBeHl4anR6dnVKZTkwSFhtSThDWllFUzZXNUlnM0x4dE9HbW5TZWhlSnRDR3c2NkZrM2xJNEVQeUoxYk1tRmRWZmVYMkJfWTZEVUpIcTZjQlF3OS1xZlpWV1AzVzU1d3oxbG41SXo4YjRNb2ZGVVJPMFpGYzU1RnFqRTBPc2NHanc2WmFaVjJDSlAybVQ3OTR5UzkzeUJFT3BDTFlOZ2RFTWRuRDBjalE3anlMWWFMeEc2ZVV6NFlzbTF4N2xQOG1NTWxKYVVwQjg3azVublhLZHNNSkdtZWJITlJDRm9IWUpGU052MUdhb0JoczhWNnVPck5RZjdROVo5akhwVjZrRGo2NGY2ZHJfaHFBbzlSSFNxM3QwSzhMU1hNaEQ0ekxaMkkybGFvYndKVEtKZzIzamtoaE00dGdyWnZrdkhSREttU0VnOXY4bDFFSFY5MGZYOE5uTGlUTHVESzJMT0QtTDY4THkxcHVLZ1llbklnUVFrMXVwQ0pMZ2Y4MWh4cE9lRC00T3RoRGJnWWx0Vl8yRUh0YjRORjk0a1dqcHpvemppSlpybUlKUE5qc0s2TDlfdUE5SEJMUXpLZHhCeUJIWWdtRjZjR0R0bFR2N1U0blhkN3pKenN6UEFpY3BtMG0wMF0tLT48L2c+PC9zdmc+;" parent="1" vertex="1">
            <mxGeometry x="160" y="320" width="1077" height="505" as="geometry" />
          </mxCell>
        </UserObject>
        <UserObject label="" plantUmlData="{&quot;data&quot;:&quot;@startuml\nparticipant User\nparticipant TaskManager\nparticipant AccountManager\nparticipant Kafka\nparticipant OpenAIWorker\nparticipant GeminiWorker\nparticipant ResultAggregator\nparticipant Evaluator\n\nUser -&gt; TaskManager: Send Task\nactivate TaskManager\nTaskManager -&gt; TaskManager: Split into subtasks\nloop for each subtask\n    TaskManager -&gt; AccountManager: Request OpenAI account\n    activate AccountManager\n    AccountManager -&gt; AccountManager: Select available OpenAI account\n    AccountManager --&gt; TaskManager: Return OpenAI account info\n    deactivate AccountManager\n    TaskManager -&gt; Kafka: Push to Kafka (topic: OpenAI)\nend\ndeactivate TaskManager\n\nKafka -&gt; OpenAIWorker: Subtask (OpenAI)\nactivate OpenAIWorker\nOpenAIWorker -&gt; OpenAIWorker: Call OpenAI API\nOpenAIWorker --&gt; ResultAggregator: Return result\ndeactivate OpenAIWorker\n\nResultAggregator -&gt; ResultAggregator: Combine results\nResultAggregator --&gt; Evaluator: Send aggregated result\nEvaluator -&gt; Evaluator: Evaluate result\nEvaluator --&gt; User: Return final result\n@enduml&quot;,&quot;format&quot;:&quot;svg&quot;}" id="y0Gl-J4qWdipeQP6zF-s-3">
          <mxCell style="shape=image;noLabel=1;verticalAlign=top;aspect=fixed;imageAspect=0;image=data:image/svg+xml,PD94bWwgdmVyc2lvbj0iMS4wIiBlbmNvZGluZz0idXMtYXNjaWkiIHN0YW5kYWxvbmU9Im5vIj8+PHN2ZyB4bWxucz0iaHR0cDovL3d3dy53My5vcmcvMjAwMC9zdmciIHhtbG5zOnhsaW5rPSJodHRwOi8vd3d3LnczLm9yZy8xOTk5L3hsaW5rIiBjb250ZW50U3R5bGVUeXBlPSJ0ZXh0L2NzcyIgaGVpZ2h0PSI1NDZweCIgcHJlc2VydmVBc3BlY3RSYXRpbz0ibm9uZSIgc3R5bGU9IndpZHRoOjEyMjZweDtoZWlnaHQ6NTQ2cHg7YmFja2dyb3VuZDojRkZGRkZGOyIgdmVyc2lvbj0iMS4xIiB2aWV3Qm94PSIwIDAgMTIyNiA1NDYiIHdpZHRoPSIxMjI2cHgiIHpvb21BbmRQYW49Im1hZ25pZnkiPjxkZWZzLz48Zz48cmVjdCBmaWxsPSIjRkZGRkZGIiBoZWlnaHQ9IjIwMy40ODQ0IiBzdHlsZT0ic3Ryb2tlOiMxODE4MTg7c3Ryb2tlLXdpZHRoOjEuMDsiIHdpZHRoPSIxMCIgeD0iMTA3IiB5PSI2NC44OTg0Ii8+PHJlY3QgZmlsbD0iI0ZGRkZGRiIgaGVpZ2h0PSI2OC44MjgxIiBzdHlsZT0ic3Ryb2tlOiMxODE4MTg7c3Ryb2tlLXdpZHRoOjEuMDsiIHdpZHRoPSIxMCIgeD0iMzE4IiB5PSIxNTYuNjQwNiIvPjxyZWN0IGZpbGw9IiNGRkZGRkYiIGhlaWdodD0iNjguODI4MSIgc3R5bGU9InN0cm9rZTojMTgxODE4O3N0cm9rZS13aWR0aDoxLjA7IiB3aWR0aD0iMTAiIHg9IjY4NCIgeT0iMjg4LjI5NjkiLz48cmVjdCBmaWxsPSJub25lIiBoZWlnaHQ9IjE0MC41NzAzIiBzdHlsZT0ic3Ryb2tlOiMwMDAwMDA7c3Ryb2tlLXdpZHRoOjEuNTsiIHdpZHRoPSI1MzUiIHg9IjU2LjUiIHk9IjEyMC44MTI1Ii8+PGxpbmUgc3R5bGU9InN0cm9rZTojMTgxODE4O3N0cm9rZS13aWR0aDowLjU7c3Ryb2tlLWRhc2hhcnJheTo1LjAsNS4wOyIgeDE9IjI2IiB4Mj0iMjYiIHkxPSIzNC45ODQ0IiB5Mj0iNTEyLjc4MTMiLz48bGluZSBzdHlsZT0ic3Ryb2tlOiMxODE4MTg7c3Ryb2tlLXdpZHRoOjAuNTtzdHJva2UtZGFzaGFycmF5OjUuMCw1LjA7IiB4MT0iMTExLjUiIHgyPSIxMTEuNSIgeTE9IjM0Ljk4NDQiIHkyPSI1MTIuNzgxMyIvPjxsaW5lIHN0eWxlPSJzdHJva2U6IzE4MTgxODtzdHJva2Utd2lkdGg6MC41O3N0cm9rZS1kYXNoYXJyYXk6NS4wLDUuMDsiIHgxPSIzMjMiIHgyPSIzMjMiIHkxPSIzNC45ODQ0IiB5Mj0iNTEyLjc4MTMiLz48bGluZSBzdHlsZT0ic3Ryb2tlOiMxODE4MTg7c3Ryb2tlLXdpZHRoOjAuNTtzdHJva2UtZGFzaGFycmF5OjUuMCw1LjA7IiB4MT0iNTU2LjUiIHgyPSI1NTYuNSIgeTE9IjM0Ljk4NDQiIHkyPSI1MTIuNzgxMyIvPjxsaW5lIHN0eWxlPSJzdHJva2U6IzE4MTgxODtzdHJva2Utd2lkdGg6MC41O3N0cm9rZS1kYXNoYXJyYXk6NS4wLDUuMDsiIHgxPSI2ODkiIHgyPSI2ODkiIHkxPSIzNC45ODQ0IiB5Mj0iNTEyLjc4MTMiLz48bGluZSBzdHlsZT0ic3Ryb2tlOiMxODE4MTg7c3Ryb2tlLXdpZHRoOjAuNTtzdHJva2UtZGFzaGFycmF5OjUuMCw1LjA7IiB4MT0iODEzLjUiIHgyPSI4MTMuNSIgeTE9IjM0Ljk4NDQiIHkyPSI1MTIuNzgxMyIvPjxsaW5lIHN0eWxlPSJzdHJva2U6IzE4MTgxODtzdHJva2Utd2lkdGg6MC41O3N0cm9rZS1kYXNoYXJyYXk6NS4wLDUuMDsiIHgxPSI5MzYuNSIgeDI9IjkzNi41IiB5MT0iMzQuOTg0NCIgeTI9IjUxMi43ODEzIi8+PGxpbmUgc3R5bGU9InN0cm9rZTojMTgxODE4O3N0cm9rZS13aWR0aDowLjU7c3Ryb2tlLWRhc2hhcnJheTo1LjAsNS4wOyIgeDE9IjExMTEiIHgyPSIxMTExIiB5MT0iMzQuOTg0NCIgeTI9IjUxMi43ODEzIi8+PHJlY3QgZmlsbD0iI0UyRTJGMCIgaGVpZ2h0PSIyOC45ODQ0IiByeD0iMi41IiByeT0iMi41IiBzdHlsZT0ic3Ryb2tlOiMxODE4MTg7c3Ryb2tlLXdpZHRoOjAuNTsiIHdpZHRoPSI0MiIgeD0iNSIgeT0iNSIvPjx0ZXh0IGZpbGw9IiMwMDAwMDAiIGZvbnQtZmFtaWx5PSJzYW5zLXNlcmlmIiBmb250LXNpemU9IjE0IiBsZW5ndGhBZGp1c3Q9InNwYWNpbmciIHRleHRMZW5ndGg9IjI4IiB4PSIxMiIgeT0iMjUuMjM0NCI+VXNlcjwvdGV4dD48cmVjdCBmaWxsPSIjRTJFMkYwIiBoZWlnaHQ9IjI4Ljk4NDQiIHJ4PSIyLjUiIHJ5PSIyLjUiIHN0eWxlPSJzdHJva2U6IzE4MTgxODtzdHJva2Utd2lkdGg6MC41OyIgd2lkdGg9IjQyIiB4PSI1IiB5PSI1MTEuNzgxMyIvPjx0ZXh0IGZpbGw9IiMwMDAwMDAiIGZvbnQtZmFtaWx5PSJzYW5zLXNlcmlmIiBmb250LXNpemU9IjE0IiBsZW5ndGhBZGp1c3Q9InNwYWNpbmciIHRleHRMZW5ndGg9IjI4IiB4PSIxMiIgeT0iNTMyLjAxNTYiPlVzZXI8L3RleHQ+PHJlY3QgZmlsbD0iI0UyRTJGMCIgaGVpZ2h0PSIyOC45ODQ0IiByeD0iMi41IiByeT0iMi41IiBzdHlsZT0ic3Ryb2tlOiMxODE4MTg7c3Ryb2tlLXdpZHRoOjAuNTsiIHdpZHRoPSI5MSIgeD0iNjYuNSIgeT0iNSIvPjx0ZXh0IGZpbGw9IiMwMDAwMDAiIGZvbnQtZmFtaWx5PSJzYW5zLXNlcmlmIiBmb250LXNpemU9IjE0IiBsZW5ndGhBZGp1c3Q9InNwYWNpbmciIHRleHRMZW5ndGg9Ijc3IiB4PSI3My41IiB5PSIyNS4yMzQ0Ij5UYXNrTWFuYWdlcjwvdGV4dD48cmVjdCBmaWxsPSIjRTJFMkYwIiBoZWlnaHQ9IjI4Ljk4NDQiIHJ4PSIyLjUiIHJ5PSIyLjUiIHN0eWxlPSJzdHJva2U6IzE4MTgxODtzdHJva2Utd2lkdGg6MC41OyIgd2lkdGg9IjkxIiB4PSI2Ni41IiB5PSI1MTEuNzgxMyIvPjx0ZXh0IGZpbGw9IiMwMDAwMDAiIGZvbnQtZmFtaWx5PSJzYW5zLXNlcmlmIiBmb250LXNpemU9IjE0IiBsZW5ndGhBZGp1c3Q9InNwYWNpbmciIHRleHRMZW5ndGg9Ijc3IiB4PSI3My41IiB5PSI1MzIuMDE1NiI+VGFza01hbmFnZXI8L3RleHQ+PHJlY3QgZmlsbD0iI0UyRTJGMCIgaGVpZ2h0PSIyOC45ODQ0IiByeD0iMi41IiByeT0iMi41IiBzdHlsZT0ic3Ryb2tlOiMxODE4MTg7c3Ryb2tlLXdpZHRoOjAuNTsiIHdpZHRoPSIxMTIiIHg9IjI2NyIgeT0iNSIvPjx0ZXh0IGZpbGw9IiMwMDAwMDAiIGZvbnQtZmFtaWx5PSJzYW5zLXNlcmlmIiBmb250LXNpemU9IjE0IiBsZW5ndGhBZGp1c3Q9InNwYWNpbmciIHRleHRMZW5ndGg9Ijk4IiB4PSIyNzQiIHk9IjI1LjIzNDQiPkFjY291bnRNYW5hZ2VyPC90ZXh0PjxyZWN0IGZpbGw9IiNFMkUyRjAiIGhlaWdodD0iMjguOTg0NCIgcng9IjIuNSIgcnk9IjIuNSIgc3R5bGU9InN0cm9rZTojMTgxODE4O3N0cm9rZS13aWR0aDowLjU7IiB3aWR0aD0iMTEyIiB4PSIyNjciIHk9IjUxMS43ODEzIi8+PHRleHQgZmlsbD0iIzAwMDAwMCIgZm9udC1mYW1pbHk9InNhbnMtc2VyaWYiIGZvbnQtc2l6ZT0iMTQiIGxlbmd0aEFkanVzdD0ic3BhY2luZyIgdGV4dExlbmd0aD0iOTgiIHg9IjI3NCIgeT0iNTMyLjAxNTYiPkFjY291bnRNYW5hZ2VyPC90ZXh0PjxyZWN0IGZpbGw9IiNFMkUyRjAiIGhlaWdodD0iMjguOTg0NCIgcng9IjIuNSIgcnk9IjIuNSIgc3R5bGU9InN0cm9rZTojMTgxODE4O3N0cm9rZS13aWR0aDowLjU7IiB3aWR0aD0iNDkiIHg9IjUzMi41IiB5PSI1Ii8+PHRleHQgZmlsbD0iIzAwMDAwMCIgZm9udC1mYW1pbHk9InNhbnMtc2VyaWYiIGZvbnQtc2l6ZT0iMTQiIGxlbmd0aEFkanVzdD0ic3BhY2luZyIgdGV4dExlbmd0aD0iMzUiIHg9IjUzOS41IiB5PSIyNS4yMzQ0Ij5LYWZrYTwvdGV4dD48cmVjdCBmaWxsPSIjRTJFMkYwIiBoZWlnaHQ9IjI4Ljk4NDQiIHJ4PSIyLjUiIHJ5PSIyLjUiIHN0eWxlPSJzdHJva2U6IzE4MTgxODtzdHJva2Utd2lkdGg6MC41OyIgd2lkdGg9IjQ5IiB4PSI1MzIuNSIgeT0iNTExLjc4MTMiLz48dGV4dCBmaWxsPSIjMDAwMDAwIiBmb250LWZhbWlseT0ic2Fucy1zZXJpZiIgZm9udC1zaXplPSIxNCIgbGVuZ3RoQWRqdXN0PSJzcGFjaW5nIiB0ZXh0TGVuZ3RoPSIzNSIgeD0iNTM5LjUiIHk9IjUzMi4wMTU2Ij5LYWZrYTwvdGV4dD48cmVjdCBmaWxsPSIjRTJFMkYwIiBoZWlnaHQ9IjI4Ljk4NDQiIHJ4PSIyLjUiIHJ5PSIyLjUiIHN0eWxlPSJzdHJva2U6IzE4MTgxODtzdHJva2Utd2lkdGg6MC41OyIgd2lkdGg9Ijk4IiB4PSI2NDAiIHk9IjUiLz48dGV4dCBmaWxsPSIjMDAwMDAwIiBmb250LWZhbWlseT0ic2Fucy1zZXJpZiIgZm9udC1zaXplPSIxNCIgbGVuZ3RoQWRqdXN0PSJzcGFjaW5nIiB0ZXh0TGVuZ3RoPSI4NCIgeD0iNjQ3IiB5PSIyNS4yMzQ0Ij5PcGVuQUlXb3JrZXI8L3RleHQ+PHJlY3QgZmlsbD0iI0UyRTJGMCIgaGVpZ2h0PSIyOC45ODQ0IiByeD0iMi41IiByeT0iMi41IiBzdHlsZT0ic3Ryb2tlOiMxODE4MTg7c3Ryb2tlLXdpZHRoOjAuNTsiIHdpZHRoPSI5OCIgeD0iNjQwIiB5PSI1MTEuNzgxMyIvPjx0ZXh0IGZpbGw9IiMwMDAwMDAiIGZvbnQtZmFtaWx5PSJzYW5zLXNlcmlmIiBmb250LXNpemU9IjE0IiBsZW5ndGhBZGp1c3Q9InNwYWNpbmciIHRleHRMZW5ndGg9Ijg0IiB4PSI2NDciIHk9IjUzMi4wMTU2Ij5PcGVuQUlXb3JrZXI8L3RleHQ+PHJlY3QgZmlsbD0iI0UyRTJGMCIgaGVpZ2h0PSIyOC45ODQ0IiByeD0iMi41IiByeT0iMi41IiBzdHlsZT0ic3Ryb2tlOiMxODE4MTg7c3Ryb2tlLXdpZHRoOjAuNTsiIHdpZHRoPSI5OSIgeD0iNzY0LjUiIHk9IjUiLz48dGV4dCBmaWxsPSIjMDAwMDAwIiBmb250LWZhbWlseT0ic2Fucy1zZXJpZiIgZm9udC1zaXplPSIxNCIgbGVuZ3RoQWRqdXN0PSJzcGFjaW5nIiB0ZXh0TGVuZ3RoPSI4NSIgeD0iNzcxLjUiIHk9IjI1LjIzNDQiPkdlbWluaVdvcmtlcjwvdGV4dD48cmVjdCBmaWxsPSIjRTJFMkYwIiBoZWlnaHQ9IjI4Ljk4NDQiIHJ4PSIyLjUiIHJ5PSIyLjUiIHN0eWxlPSJzdHJva2U6IzE4MTgxODtzdHJva2Utd2lkdGg6MC41OyIgd2lkdGg9Ijk5IiB4PSI3NjQuNSIgeT0iNTExLjc4MTMiLz48dGV4dCBmaWxsPSIjMDAwMDAwIiBmb250LWZhbWlseT0ic2Fucy1zZXJpZiIgZm9udC1zaXplPSIxNCIgbGVuZ3RoQWRqdXN0PSJzcGFjaW5nIiB0ZXh0TGVuZ3RoPSI4NSIgeD0iNzcxLjUiIHk9IjUzMi4wMTU2Ij5HZW1pbmlXb3JrZXI8L3RleHQ+PHJlY3QgZmlsbD0iI0UyRTJGMCIgaGVpZ2h0PSIyOC45ODQ0IiByeD0iMi41IiByeT0iMi41IiBzdHlsZT0ic3Ryb2tlOiMxODE4MTg7c3Ryb2tlLXdpZHRoOjAuNTsiIHdpZHRoPSIxMjYiIHg9Ijg3My41IiB5PSI1Ii8+PHRleHQgZmlsbD0iIzAwMDAwMCIgZm9udC1mYW1pbHk9InNhbnMtc2VyaWYiIGZvbnQtc2l6ZT0iMTQiIGxlbmd0aEFkanVzdD0ic3BhY2luZyIgdGV4dExlbmd0aD0iMTEyIiB4PSI4ODAuNSIgeT0iMjUuMjM0NCI+UmVzdWx0QWdncmVnYXRvcjwvdGV4dD48cmVjdCBmaWxsPSIjRTJFMkYwIiBoZWlnaHQ9IjI4Ljk4NDQiIHJ4PSIyLjUiIHJ5PSIyLjUiIHN0eWxlPSJzdHJva2U6IzE4MTgxODtzdHJva2Utd2lkdGg6MC41OyIgd2lkdGg9IjEyNiIgeD0iODczLjUiIHk9IjUxMS43ODEzIi8+PHRleHQgZmlsbD0iIzAwMDAwMCIgZm9udC1mYW1pbHk9InNhbnMtc2VyaWYiIGZvbnQtc2l6ZT0iMTQiIGxlbmd0aEFkanVzdD0ic3BhY2luZyIgdGV4dExlbmd0aD0iMTEyIiB4PSI4ODAuNSIgeT0iNTMyLjAxNTYiPlJlc3VsdEFnZ3JlZ2F0b3I8L3RleHQ+PHJlY3QgZmlsbD0iI0UyRTJGMCIgaGVpZ2h0PSIyOC45ODQ0IiByeD0iMi41IiByeT0iMi41IiBzdHlsZT0ic3Ryb2tlOiMxODE4MTg7c3Ryb2tlLXdpZHRoOjAuNTsiIHdpZHRoPSI3NyIgeD0iMTA3MyIgeT0iNSIvPjx0ZXh0IGZpbGw9IiMwMDAwMDAiIGZvbnQtZmFtaWx5PSJzYW5zLXNlcmlmIiBmb250LXNpemU9IjE0IiBsZW5ndGhBZGp1c3Q9InNwYWNpbmciIHRleHRMZW5ndGg9IjYzIiB4PSIxMDgwIiB5PSIyNS4yMzQ0Ij5FdmFsdWF0b3I8L3RleHQ+PHJlY3QgZmlsbD0iI0UyRTJGMCIgaGVpZ2h0PSIyOC45ODQ0IiByeD0iMi41IiByeT0iMi41IiBzdHlsZT0ic3Ryb2tlOiMxODE4MTg7c3Ryb2tlLXdpZHRoOjAuNTsiIHdpZHRoPSI3NyIgeD0iMTA3MyIgeT0iNTExLjc4MTMiLz48dGV4dCBmaWxsPSIjMDAwMDAwIiBmb250LWZhbWlseT0ic2Fucy1zZXJpZiIgZm9udC1zaXplPSIxNCIgbGVuZ3RoQWRqdXN0PSJzcGFjaW5nIiB0ZXh0TGVuZ3RoPSI2MyIgeD0iMTA4MCIgeT0iNTMyLjAxNTYiPkV2YWx1YXRvcjwvdGV4dD48cmVjdCBmaWxsPSIjRkZGRkZGIiBoZWlnaHQ9IjIwMy40ODQ0IiBzdHlsZT0ic3Ryb2tlOiMxODE4MTg7c3Ryb2tlLXdpZHRoOjEuMDsiIHdpZHRoPSIxMCIgeD0iMTA3IiB5PSI2NC44OTg0Ii8+PHJlY3QgZmlsbD0iI0ZGRkZGRiIgaGVpZ2h0PSI2OC44MjgxIiBzdHlsZT0ic3Ryb2tlOiMxODE4MTg7c3Ryb2tlLXdpZHRoOjEuMDsiIHdpZHRoPSIxMCIgeD0iMzE4IiB5PSIxNTYuNjQwNiIvPjxyZWN0IGZpbGw9IiNGRkZGRkYiIGhlaWdodD0iNjguODI4MSIgc3R5bGU9InN0cm9rZTojMTgxODE4O3N0cm9rZS13aWR0aDoxLjA7IiB3aWR0aD0iMTAiIHg9IjY4NCIgeT0iMjg4LjI5NjkiLz48cG9seWdvbiBmaWxsPSIjMTgxODE4IiBwb2ludHM9Ijk1LDYwLjg5ODQsMTA1LDY0Ljg5ODQsOTUsNjguODk4NCw5OSw2NC44OTg0IiBzdHlsZT0ic3Ryb2tlOiMxODE4MTg7c3Ryb2tlLXdpZHRoOjEuMDsiLz48bGluZSBzdHlsZT0ic3Ryb2tlOiMxODE4MTg7c3Ryb2tlLXdpZHRoOjEuMDsiIHgxPSIyNiIgeDI9IjEwMSIgeTE9IjY0Ljg5ODQiIHkyPSI2NC44OTg0Ii8+PHRleHQgZmlsbD0iIzAwMDAwMCIgZm9udC1mYW1pbHk9InNhbnMtc2VyaWYiIGZvbnQtc2l6ZT0iMTMiIGxlbmd0aEFkanVzdD0ic3BhY2luZyIgdGV4dExlbmd0aD0iNjIiIHg9IjMzIiB5PSI2MS4yNzM0Ij5TZW5kIFRhc2s8L3RleHQ+PGxpbmUgc3R5bGU9InN0cm9rZTojMTgxODE4O3N0cm9rZS13aWR0aDoxLjA7IiB4MT0iMTE3IiB4Mj0iMTU5IiB5MT0iOTIuODEyNSIgeTI9IjkyLjgxMjUiLz48bGluZSBzdHlsZT0ic3Ryb2tlOiMxODE4MTg7c3Ryb2tlLXdpZHRoOjEuMDsiIHgxPSIxNTkiIHgyPSIxNTkiIHkxPSI5Mi44MTI1IiB5Mj0iMTA1LjgxMjUiLz48bGluZSBzdHlsZT0ic3Ryb2tlOiMxODE4MTg7c3Ryb2tlLXdpZHRoOjEuMDsiIHgxPSIxMTgiIHgyPSIxNTkiIHkxPSIxMDUuODEyNSIgeTI9IjEwNS44MTI1Ii8+PHBvbHlnb24gZmlsbD0iIzE4MTgxOCIgcG9pbnRzPSIxMjgsMTAxLjgxMjUsMTE4LDEwNS44MTI1LDEyOCwxMDkuODEyNSwxMjQsMTA1LjgxMjUiIHN0eWxlPSJzdHJva2U6IzE4MTgxODtzdHJva2Utd2lkdGg6MS4wOyIvPjx0ZXh0IGZpbGw9IiMwMDAwMDAiIGZvbnQtZmFtaWx5PSJzYW5zLXNlcmlmIiBmb250LXNpemU9IjEzIiBsZW5ndGhBZGp1c3Q9InNwYWNpbmciIHRleHRMZW5ndGg9IjEyNyIgeD0iMTI0IiB5PSI4OS4xODc1Ij5TcGxpdCBpbnRvIHN1YnRhc2tzPC90ZXh0PjxwYXRoIGQ9Ik01Ni41LDEyMC44MTI1IEwxMjguNSwxMjAuODEyNSBMMTI4LjUsMTI2LjcyNjYgTDExOC41LDEzNi43MjY2IEw1Ni41LDEzNi43MjY2IEw1Ni41LDEyMC44MTI1ICIgZmlsbD0iI0VFRUVFRSIgc3R5bGU9InN0cm9rZTojMDAwMDAwO3N0cm9rZS13aWR0aDoxLjU7Ii8+PHJlY3QgZmlsbD0ibm9uZSIgaGVpZ2h0PSIxNDAuNTcwMyIgc3R5bGU9InN0cm9rZTojMDAwMDAwO3N0cm9rZS13aWR0aDoxLjU7IiB3aWR0aD0iNTM1IiB4PSI1Ni41IiB5PSIxMjAuODEyNSIvPjx0ZXh0IGZpbGw9IiMwMDAwMDAiIGZvbnQtZmFtaWx5PSJzYW5zLXNlcmlmIiBmb250LXNpemU9IjEzIiBmb250LXdlaWdodD0iYm9sZCIgbGVuZ3RoQWRqdXN0PSJzcGFjaW5nIiB0ZXh0TGVuZ3RoPSIyNyIgeD0iNzEuNSIgeT0iMTM0LjEwMTYiPmxvb3A8L3RleHQ+PHRleHQgZmlsbD0iIzAwMDAwMCIgZm9udC1mYW1pbHk9InNhbnMtc2VyaWYiIGZvbnQtc2l6ZT0iMTEiIGZvbnQtd2VpZ2h0PSJib2xkIiBsZW5ndGhBZGp1c3Q9InNwYWNpbmciIHRleHRMZW5ndGg9IjEwOCIgeD0iMTQzLjUiIHk9IjEzMy4yMTA5Ij5bZm9yIGVhY2ggc3VidGFza108L3RleHQ+PHBvbHlnb24gZmlsbD0iIzE4MTgxOCIgcG9pbnRzPSIzMDYsMTUyLjY0MDYsMzE2LDE1Ni42NDA2LDMwNiwxNjAuNjQwNiwzMTAsMTU2LjY0MDYiIHN0eWxlPSJzdHJva2U6IzE4MTgxODtzdHJva2Utd2lkdGg6MS4wOyIvPjxsaW5lIHN0eWxlPSJzdHJva2U6IzE4MTgxODtzdHJva2Utd2lkdGg6MS4wOyIgeDE9IjExNyIgeDI9IjMxMiIgeTE9IjE1Ni42NDA2IiB5Mj0iMTU2LjY0MDYiLz48dGV4dCBmaWxsPSIjMDAwMDAwIiBmb250LWZhbWlseT0ic2Fucy1zZXJpZiIgZm9udC1zaXplPSIxMyIgbGVuZ3RoQWRqdXN0PSJzcGFjaW5nIiB0ZXh0TGVuZ3RoPSIxNTEiIHg9IjEyNCIgeT0iMTUzLjAxNTYiPlJlcXVlc3QgT3BlbkFJIGFjY291bnQ8L3RleHQ+PGxpbmUgc3R5bGU9InN0cm9rZTojMTgxODE4O3N0cm9rZS13aWR0aDoxLjA7IiB4MT0iMzI4IiB4Mj0iMzcwIiB5MT0iMTg0LjU1NDciIHkyPSIxODQuNTU0NyIvPjxsaW5lIHN0eWxlPSJzdHJva2U6IzE4MTgxODtzdHJva2Utd2lkdGg6MS4wOyIgeDE9IjM3MCIgeDI9IjM3MCIgeTE9IjE4NC41NTQ3IiB5Mj0iMTk3LjU1NDciLz48bGluZSBzdHlsZT0ic3Ryb2tlOiMxODE4MTg7c3Ryb2tlLXdpZHRoOjEuMDsiIHgxPSIzMjkiIHgyPSIzNzAiIHkxPSIxOTcuNTU0NyIgeTI9IjE5Ny41NTQ3Ii8+PHBvbHlnb24gZmlsbD0iIzE4MTgxOCIgcG9pbnRzPSIzMzksMTkzLjU1NDcsMzI5LDE5Ny41NTQ3LDMzOSwyMDEuNTU0NywzMzUsMTk3LjU1NDciIHN0eWxlPSJzdHJva2U6IzE4MTgxODtzdHJva2Utd2lkdGg6MS4wOyIvPjx0ZXh0IGZpbGw9IiMwMDAwMDAiIGZvbnQtZmFtaWx5PSJzYW5zLXNlcmlmIiBmb250LXNpemU9IjEzIiBsZW5ndGhBZGp1c3Q9InNwYWNpbmciIHRleHRMZW5ndGg9IjIxMCIgeD0iMzM1IiB5PSIxODAuOTI5NyI+U2VsZWN0IGF2YWlsYWJsZSBPcGVuQUkgYWNjb3VudDwvdGV4dD48cG9seWdvbiBmaWxsPSIjMTgxODE4IiBwb2ludHM9IjEyOCwyMjEuNDY4OCwxMTgsMjI1LjQ2ODgsMTI4LDIyOS40Njg4LDEyNCwyMjUuNDY4OCIgc3R5bGU9InN0cm9rZTojMTgxODE4O3N0cm9rZS13aWR0aDoxLjA7Ii8+PGxpbmUgc3R5bGU9InN0cm9rZTojMTgxODE4O3N0cm9rZS13aWR0aDoxLjA7c3Ryb2tlLWRhc2hhcnJheToyLjAsMi4wOyIgeDE9IjEyMiIgeDI9IjMyMiIgeTE9IjIyNS40Njg4IiB5Mj0iMjI1LjQ2ODgiLz48dGV4dCBmaWxsPSIjMDAwMDAwIiBmb250LWZhbWlseT0ic2Fucy1zZXJpZiIgZm9udC1zaXplPSIxMyIgbGVuZ3RoQWRqdXN0PSJzcGFjaW5nIiB0ZXh0TGVuZ3RoPSIxNzciIHg9IjEzNCIgeT0iMjIxLjg0MzgiPlJldHVybiBPcGVuQUkgYWNjb3VudCBpbmZvPC90ZXh0Pjxwb2x5Z29uIGZpbGw9IiMxODE4MTgiIHBvaW50cz0iNTQ1LDI0OS4zODI4LDU1NSwyNTMuMzgyOCw1NDUsMjU3LjM4MjgsNTQ5LDI1My4zODI4IiBzdHlsZT0ic3Ryb2tlOiMxODE4MTg7c3Ryb2tlLXdpZHRoOjEuMDsiLz48bGluZSBzdHlsZT0ic3Ryb2tlOiMxODE4MTg7c3Ryb2tlLXdpZHRoOjEuMDsiIHgxPSIxMTciIHgyPSI1NTEiIHkxPSIyNTMuMzgyOCIgeTI9IjI1My4zODI4Ii8+PHRleHQgZmlsbD0iIzAwMDAwMCIgZm9udC1mYW1pbHk9InNhbnMtc2VyaWYiIGZvbnQtc2l6ZT0iMTMiIGxlbmd0aEFkanVzdD0ic3BhY2luZyIgdGV4dExlbmd0aD0iMTk1IiB4PSIxMjQiIHk9IjI0OS43NTc4Ij5QdXNoIHRvIEthZmthICh0b3BpYzogT3BlbkFJKTwvdGV4dD48cG9seWdvbiBmaWxsPSIjMTgxODE4IiBwb2ludHM9IjY3MiwyODQuMjk2OSw2ODIsMjg4LjI5NjksNjcyLDI5Mi4yOTY5LDY3NiwyODguMjk2OSIgc3R5bGU9InN0cm9rZTojMTgxODE4O3N0cm9rZS13aWR0aDoxLjA7Ii8+PGxpbmUgc3R5bGU9InN0cm9rZTojMTgxODE4O3N0cm9rZS13aWR0aDoxLjA7IiB4MT0iNTU3IiB4Mj0iNjc4IiB5MT0iMjg4LjI5NjkiIHkyPSIyODguMjk2OSIvPjx0ZXh0IGZpbGw9IiMwMDAwMDAiIGZvbnQtZmFtaWx5PSJzYW5zLXNlcmlmIiBmb250LXNpemU9IjEzIiBsZW5ndGhBZGp1c3Q9InNwYWNpbmciIHRleHRMZW5ndGg9IjEwOCIgeD0iNTY0IiB5PSIyODQuNjcxOSI+U3VidGFzayAoT3BlbkFJKTwvdGV4dD48bGluZSBzdHlsZT0ic3Ryb2tlOiMxODE4MTg7c3Ryb2tlLXdpZHRoOjEuMDsiIHgxPSI2OTQiIHgyPSI3MzYiIHkxPSIzMTYuMjEwOSIgeTI9IjMxNi4yMTA5Ii8+PGxpbmUgc3R5bGU9InN0cm9rZTojMTgxODE4O3N0cm9rZS13aWR0aDoxLjA7IiB4MT0iNzM2IiB4Mj0iNzM2IiB5MT0iMzE2LjIxMDkiIHkyPSIzMjkuMjEwOSIvPjxsaW5lIHN0eWxlPSJzdHJva2U6IzE4MTgxODtzdHJva2Utd2lkdGg6MS4wOyIgeDE9IjY5NSIgeDI9IjczNiIgeTE9IjMyOS4yMTA5IiB5Mj0iMzI5LjIxMDkiLz48cG9seWdvbiBmaWxsPSIjMTgxODE4IiBwb2ludHM9IjcwNSwzMjUuMjEwOSw2OTUsMzI5LjIxMDksNzA1LDMzMy4yMTA5LDcwMSwzMjkuMjEwOSIgc3R5bGU9InN0cm9rZTojMTgxODE4O3N0cm9rZS13aWR0aDoxLjA7Ii8+PHRleHQgZmlsbD0iIzAwMDAwMCIgZm9udC1mYW1pbHk9InNhbnMtc2VyaWYiIGZvbnQtc2l6ZT0iMTMiIGxlbmd0aEFkanVzdD0ic3BhY2luZyIgdGV4dExlbmd0aD0iMTAxIiB4PSI3MDEiIHk9IjMxMi41ODU5Ij5DYWxsIE9wZW5BSSBBUEk8L3RleHQ+PHBvbHlnb24gZmlsbD0iIzE4MTgxOCIgcG9pbnRzPSI5MjQuNSwzNTMuMTI1LDkzNC41LDM1Ny4xMjUsOTI0LjUsMzYxLjEyNSw5MjguNSwzNTcuMTI1IiBzdHlsZT0ic3Ryb2tlOiMxODE4MTg7c3Ryb2tlLXdpZHRoOjEuMDsiLz48bGluZSBzdHlsZT0ic3Ryb2tlOiMxODE4MTg7c3Ryb2tlLXdpZHRoOjEuMDtzdHJva2UtZGFzaGFycmF5OjIuMCwyLjA7IiB4MT0iNjg5IiB4Mj0iOTMwLjUiIHkxPSIzNTcuMTI1IiB5Mj0iMzU3LjEyNSIvPjx0ZXh0IGZpbGw9IiMwMDAwMDAiIGZvbnQtZmFtaWx5PSJzYW5zLXNlcmlmIiBmb250LXNpemU9IjEzIiBsZW5ndGhBZGp1c3Q9InNwYWNpbmciIHRleHRMZW5ndGg9Ijg4IiB4PSI2OTYiIHk9IjM1My41Ij5SZXR1cm4gcmVzdWx0PC90ZXh0PjxsaW5lIHN0eWxlPSJzdHJva2U6IzE4MTgxODtzdHJva2Utd2lkdGg6MS4wOyIgeDE9IjkzNi41IiB4Mj0iOTc4LjUiIHkxPSIzODUuMDM5MSIgeTI9IjM4NS4wMzkxIi8+PGxpbmUgc3R5bGU9InN0cm9rZTojMTgxODE4O3N0cm9rZS13aWR0aDoxLjA7IiB4MT0iOTc4LjUiIHgyPSI5NzguNSIgeTE9IjM4NS4wMzkxIiB5Mj0iMzk4LjAzOTEiLz48bGluZSBzdHlsZT0ic3Ryb2tlOiMxODE4MTg7c3Ryb2tlLXdpZHRoOjEuMDsiIHgxPSI5MzcuNSIgeDI9Ijk3OC41IiB5MT0iMzk4LjAzOTEiIHkyPSIzOTguMDM5MSIvPjxwb2x5Z29uIGZpbGw9IiMxODE4MTgiIHBvaW50cz0iOTQ3LjUsMzk0LjAzOTEsOTM3LjUsMzk4LjAzOTEsOTQ3LjUsNDAyLjAzOTEsOTQzLjUsMzk4LjAzOTEiIHN0eWxlPSJzdHJva2U6IzE4MTgxODtzdHJva2Utd2lkdGg6MS4wOyIvPjx0ZXh0IGZpbGw9IiMwMDAwMDAiIGZvbnQtZmFtaWx5PSJzYW5zLXNlcmlmIiBmb250LXNpemU9IjEzIiBsZW5ndGhBZGp1c3Q9InNwYWNpbmciIHRleHRMZW5ndGg9IjEwMSIgeD0iOTQzLjUiIHk9IjM4MS40MTQxIj5Db21iaW5lIHJlc3VsdHM8L3RleHQ+PHBvbHlnb24gZmlsbD0iIzE4MTgxOCIgcG9pbnRzPSIxMDk5LjUsNDIxLjk1MzEsMTEwOS41LDQyNS45NTMxLDEwOTkuNSw0MjkuOTUzMSwxMTAzLjUsNDI1Ljk1MzEiIHN0eWxlPSJzdHJva2U6IzE4MTgxODtzdHJva2Utd2lkdGg6MS4wOyIvPjxsaW5lIHN0eWxlPSJzdHJva2U6IzE4MTgxODtzdHJva2Utd2lkdGg6MS4wO3N0cm9rZS1kYXNoYXJyYXk6Mi4wLDIuMDsiIHgxPSI5MzYuNSIgeDI9IjExMDUuNSIgeTE9IjQyNS45NTMxIiB5Mj0iNDI1Ljk1MzEiLz48dGV4dCBmaWxsPSIjMDAwMDAwIiBmb250LWZhbWlseT0ic2Fucy1zZXJpZiIgZm9udC1zaXplPSIxMyIgbGVuZ3RoQWRqdXN0PSJzcGFjaW5nIiB0ZXh0TGVuZ3RoPSIxNTEiIHg9Ijk0My41IiB5PSI0MjIuMzI4MSI+U2VuZCBhZ2dyZWdhdGVkIHJlc3VsdDwvdGV4dD48bGluZSBzdHlsZT0ic3Ryb2tlOiMxODE4MTg7c3Ryb2tlLXdpZHRoOjEuMDsiIHgxPSIxMTExLjUiIHgyPSIxMTUzLjUiIHkxPSI0NTMuODY3MiIgeTI9IjQ1My44NjcyIi8+PGxpbmUgc3R5bGU9InN0cm9rZTojMTgxODE4O3N0cm9rZS13aWR0aDoxLjA7IiB4MT0iMTE1My41IiB4Mj0iMTE1My41IiB5MT0iNDUzLjg2NzIiIHkyPSI0NjYuODY3MiIvPjxsaW5lIHN0eWxlPSJzdHJva2U6IzE4MTgxODtzdHJva2Utd2lkdGg6MS4wOyIgeDE9IjExMTIuNSIgeDI9IjExNTMuNSIgeTE9IjQ2Ni44NjcyIiB5Mj0iNDY2Ljg2NzIiLz48cG9seWdvbiBmaWxsPSIjMTgxODE4IiBwb2ludHM9IjExMjIuNSw0NjIuODY3MiwxMTEyLjUsNDY2Ljg2NzIsMTEyMi41LDQ3MC44NjcyLDExMTguNSw0NjYuODY3MiIgc3R5bGU9InN0cm9rZTojMTgxODE4O3N0cm9rZS13aWR0aDoxLjA7Ii8+PHRleHQgZmlsbD0iIzAwMDAwMCIgZm9udC1mYW1pbHk9InNhbnMtc2VyaWYiIGZvbnQtc2l6ZT0iMTMiIGxlbmd0aEFkanVzdD0ic3BhY2luZyIgdGV4dExlbmd0aD0iMTAxIiB4PSIxMTE4LjUiIHk9IjQ1MC4yNDIyIj5FdmFsdWF0ZSByZXN1bHQ8L3RleHQ+PHBvbHlnb24gZmlsbD0iIzE4MTgxOCIgcG9pbnRzPSIzNyw0OTAuNzgxMywyNyw0OTQuNzgxMywzNyw0OTguNzgxMywzMyw0OTQuNzgxMyIgc3R5bGU9InN0cm9rZTojMTgxODE4O3N0cm9rZS13aWR0aDoxLjA7Ii8+PGxpbmUgc3R5bGU9InN0cm9rZTojMTgxODE4O3N0cm9rZS13aWR0aDoxLjA7c3Ryb2tlLWRhc2hhcnJheToyLjAsMi4wOyIgeDE9IjMxIiB4Mj0iMTExMC41IiB5MT0iNDk0Ljc4MTMiIHkyPSI0OTQuNzgxMyIvPjx0ZXh0IGZpbGw9IiMwMDAwMDAiIGZvbnQtZmFtaWx5PSJzYW5zLXNlcmlmIiBmb250LXNpemU9IjEzIiBsZW5ndGhBZGp1c3Q9InNwYWNpbmciIHRleHRMZW5ndGg9IjEyNyIgeD0iNDMiIHk9IjQ5MS4xNTYzIj5SZXR1cm4gZmluYWwgcmVzdWx0PC90ZXh0PjwhLS1TUkM9W1ZMREJSaUNXNERycFliY2NZcngwWXFmTUw1TEhMSkxBTWRLejhNQzdYRzNiYV9FTjREaTJXa2dMRlVfM2w2NWlxN2gxWEs3YnVUa0hQSU9oVkE0eFZ3MzJpUWh0ZEVrV1YwanduLTZDSFVOSmFFZXRGemdVQS1lUk5PR0kzTTE3QmFaVlp3RWI0UnFrbVRTaG9mMmd4RE9sRkJfYVJOUW05dExDNU9SU1lvandBYzlheHV6STh1SzdlUm02NW11LUdldjloR3FDc1c4WEZ5cmIxbDZmZENnUFQzNzRSbzB0bm1VeW1xY3ZENVJEeU9RTGZQUm5kWUhuM3RYNThWNFdnTkwyeEw4ZHRQNEZMYk5BYzdwR0lOd2FfcmdpV2dTUnhzMFJ0MGRZdkQ4ZGhCbXNXZFZKMkt5aU5XaEJORkNST05UNVRDZXQ5VVF5cG5mTWl5VVlCWk9nX3RXcU1RRUtTeW4ta3dkT2FMeGxzWjhSY3UyeXdVOU9MV2tYUVJSTWJ1REdEQmN2WFloQWJmTVVqWFNkYzh2cDVtaTNJbGhxSVdyVTlEeC1ab05GODFKQVlWUzddLS0+PC9nPjwvc3ZnPg==;" vertex="1" parent="1">
            <mxGeometry x="85.5" y="990" width="1226" height="546" as="geometry" />
          </mxCell>
        </UserObject>
        <mxCell id="y0Gl-J4qWdipeQP6zF-s-4" value="&lt;b&gt;a. Luồng xử lý Task (Chia task, đẩy vào Kafka, xử lý bởi Worker):&lt;/b&gt;" style="text;html=1;align=center;verticalAlign=middle;resizable=0;points=[];autosize=1;strokeColor=none;fillColor=none;" vertex="1" parent="1">
          <mxGeometry x="70" y="940" width="390" height="30" as="geometry" />
        </mxCell>
        <mxCell id="y0Gl-J4qWdipeQP6zF-s-5" value="&lt;b&gt;b. Luồng Quản lý Tài khoản:&lt;/b&gt;" style="text;html=1;align=center;verticalAlign=middle;resizable=0;points=[];autosize=1;strokeColor=none;fillColor=none;" vertex="1" parent="1">
          <mxGeometry x="85.5" y="1608" width="180" height="30" as="geometry" />
        </mxCell>
        <UserObject label="" plantUmlData="{&#xa;  &quot;data&quot;: &quot;@startuml\nparticipant TaskManager\nparticipant AccountManager\ndatabase Database\n\nTaskManager -&gt; AccountManager: Yêu cầu tài khoản OpenAI\nactivate AccountManager\nAccountManager -&gt; Database: Truy vấn tài khoản OpenAI khả dụng\nactivate Database\nDatabase --&gt; AccountManager: Trả về tài khoản (hoặc thông báo không có)\ndeactivate Database\nAccountManager -&gt; AccountManager: Cập nhật trạng thái tài khoản (đang sử dụng)\nAccountManager --&gt; TaskManager: Trả về thông tin tài khoản OpenAI\ndeactivate AccountManager\n\n@enduml&quot;,&#xa;  &quot;format&quot;: &quot;svg&quot;&#xa;}" id="y0Gl-J4qWdipeQP6zF-s-6">
          <mxCell style="shape=image;noLabel=1;verticalAlign=top;aspect=fixed;imageAspect=0;image=data:image/svg+xml,PD94bWwgdmVyc2lvbj0iMS4wIiBlbmNvZGluZz0idXMtYXNjaWkiIHN0YW5kYWxvbmU9Im5vIj8+PHN2ZyB4bWxucz0iaHR0cDovL3d3dy53My5vcmcvMjAwMC9zdmciIHhtbG5zOnhsaW5rPSJodHRwOi8vd3d3LnczLm9yZy8xOTk5L3hsaW5rIiBjb250ZW50U3R5bGVUeXBlPSJ0ZXh0L2NzcyIgaGVpZ2h0PSIzMTVweCIgcHJlc2VydmVBc3BlY3RSYXRpbz0ibm9uZSIgc3R5bGU9IndpZHRoOjY2MnB4O2hlaWdodDozMTVweDtiYWNrZ3JvdW5kOiNGRkZGRkY7IiB2ZXJzaW9uPSIxLjEiIHZpZXdCb3g9IjAgMCA2NjIgMzE1IiB3aWR0aD0iNjYycHgiIHpvb21BbmRQYW49Im1hZ25pZnkiPjxkZWZzLz48Zz48cmVjdCBmaWxsPSIjRkZGRkZGIiBoZWlnaHQ9IjEyNC42NTYzIiBzdHlsZT0ic3Ryb2tlOiMxODE4MTg7c3Ryb2tlLXdpZHRoOjEuMDsiIHdpZHRoPSIxMCIgeD0iMjk4LjUiIHk9Ijk1Ljg5ODQiLz48cmVjdCBmaWxsPSIjRkZGRkZGIiBoZWlnaHQ9IjI3LjkxNDEiIHN0eWxlPSJzdHJva2U6IzE4MTgxODtzdHJva2Utd2lkdGg6MS4wOyIgd2lkdGg9IjEwIiB4PSI2MjIuNSIgeT0iMTIzLjgxMjUiLz48bGluZSBzdHlsZT0ic3Ryb2tlOiMxODE4MTg7c3Ryb2tlLXdpZHRoOjAuNTtzdHJva2UtZGFzaGFycmF5OjUuMCw1LjA7IiB4MT0iNTAiIHgyPSI1MCIgeTE9IjY1Ljk4NDQiIHkyPSIyMzguNTU0NyIvPjxsaW5lIHN0eWxlPSJzdHJva2U6IzE4MTgxODtzdHJva2Utd2lkdGg6MC41O3N0cm9rZS1kYXNoYXJyYXk6NS4wLDUuMDsiIHgxPSIzMDMuNSIgeDI9IjMwMy41IiB5MT0iNjUuOTg0NCIgeTI9IjIzOC41NTQ3Ii8+PGxpbmUgc3R5bGU9InN0cm9rZTojMTgxODE4O3N0cm9rZS13aWR0aDowLjU7c3Ryb2tlLWRhc2hhcnJheTo1LjAsNS4wOyIgeDE9IjYyNy41IiB4Mj0iNjI3LjUiIHkxPSI2NS45ODQ0IiB5Mj0iMjM4LjU1NDciLz48cmVjdCBmaWxsPSIjRTJFMkYwIiBoZWlnaHQ9IjI4Ljk4NDQiIHJ4PSIyLjUiIHJ5PSIyLjUiIHN0eWxlPSJzdHJva2U6IzE4MTgxODtzdHJva2Utd2lkdGg6MC41OyIgd2lkdGg9IjkxIiB4PSI1IiB5PSIzNiIvPjx0ZXh0IGZpbGw9IiMwMDAwMDAiIGZvbnQtZmFtaWx5PSJzYW5zLXNlcmlmIiBmb250LXNpemU9IjE0IiBsZW5ndGhBZGp1c3Q9InNwYWNpbmciIHRleHRMZW5ndGg9Ijc3IiB4PSIxMiIgeT0iNTYuMjM0NCI+VGFza01hbmFnZXI8L3RleHQ+PHJlY3QgZmlsbD0iI0UyRTJGMCIgaGVpZ2h0PSIyOC45ODQ0IiByeD0iMi41IiByeT0iMi41IiBzdHlsZT0ic3Ryb2tlOiMxODE4MTg7c3Ryb2tlLXdpZHRoOjAuNTsiIHdpZHRoPSI5MSIgeD0iNSIgeT0iMjM3LjU1NDciLz48dGV4dCBmaWxsPSIjMDAwMDAwIiBmb250LWZhbWlseT0ic2Fucy1zZXJpZiIgZm9udC1zaXplPSIxNCIgbGVuZ3RoQWRqdXN0PSJzcGFjaW5nIiB0ZXh0TGVuZ3RoPSI3NyIgeD0iMTIiIHk9IjI1Ny43ODkxIj5UYXNrTWFuYWdlcjwvdGV4dD48cmVjdCBmaWxsPSIjRTJFMkYwIiBoZWlnaHQ9IjI4Ljk4NDQiIHJ4PSIyLjUiIHJ5PSIyLjUiIHN0eWxlPSJzdHJva2U6IzE4MTgxODtzdHJva2Utd2lkdGg6MC41OyIgd2lkdGg9IjExMiIgeD0iMjQ3LjUiIHk9IjM2Ii8+PHRleHQgZmlsbD0iIzAwMDAwMCIgZm9udC1mYW1pbHk9InNhbnMtc2VyaWYiIGZvbnQtc2l6ZT0iMTQiIGxlbmd0aEFkanVzdD0ic3BhY2luZyIgdGV4dExlbmd0aD0iOTgiIHg9IjI1NC41IiB5PSI1Ni4yMzQ0Ij5BY2NvdW50TWFuYWdlcjwvdGV4dD48cmVjdCBmaWxsPSIjRTJFMkYwIiBoZWlnaHQ9IjI4Ljk4NDQiIHJ4PSIyLjUiIHJ5PSIyLjUiIHN0eWxlPSJzdHJva2U6IzE4MTgxODtzdHJva2Utd2lkdGg6MC41OyIgd2lkdGg9IjExMiIgeD0iMjQ3LjUiIHk9IjIzNy41NTQ3Ii8+PHRleHQgZmlsbD0iIzAwMDAwMCIgZm9udC1mYW1pbHk9InNhbnMtc2VyaWYiIGZvbnQtc2l6ZT0iMTQiIGxlbmd0aEFkanVzdD0ic3BhY2luZyIgdGV4dExlbmd0aD0iOTgiIHg9IjI1NC41IiB5PSIyNTcuNzg5MSI+QWNjb3VudE1hbmFnZXI8L3RleHQ+PHRleHQgZmlsbD0iIzAwMDAwMCIgZm9udC1mYW1pbHk9InNhbnMtc2VyaWYiIGZvbnQtc2l6ZT0iMTQiIGxlbmd0aEFkanVzdD0ic3BhY2luZyIgdGV4dExlbmd0aD0iNTYiIHg9IjU5Ni41IiB5PSI2NC4yMzQ0Ij5EYXRhYmFzZTwvdGV4dD48cGF0aCBkPSJNNjA5LjUsMTUgQzYwOS41LDUgNjI3LjUsNSA2MjcuNSw1IEM2MjcuNSw1IDY0NS41LDUgNjQ1LjUsMTUgTDY0NS41LDQxIEM2NDUuNSw1MSA2MjcuNSw1MSA2MjcuNSw1MSBDNjI3LjUsNTEgNjA5LjUsNTEgNjA5LjUsNDEgTDYwOS41LDE1ICIgZmlsbD0iI0UyRTJGMCIgc3R5bGU9InN0cm9rZTojMTgxODE4O3N0cm9rZS13aWR0aDoxLjU7Ii8+PHBhdGggZD0iTTYwOS41LDE1IEM2MDkuNSwyNSA2MjcuNSwyNSA2MjcuNSwyNSBDNjI3LjUsMjUgNjQ1LjUsMjUgNjQ1LjUsMTUgIiBmaWxsPSJub25lIiBzdHlsZT0ic3Ryb2tlOiMxODE4MTg7c3Ryb2tlLXdpZHRoOjEuNTsiLz48dGV4dCBmaWxsPSIjMDAwMDAwIiBmb250LWZhbWlseT0ic2Fucy1zZXJpZiIgZm9udC1zaXplPSIxNCIgbGVuZ3RoQWRqdXN0PSJzcGFjaW5nIiB0ZXh0TGVuZ3RoPSI1NiIgeD0iNTk2LjUiIHk9IjI1MC43ODkxIj5EYXRhYmFzZTwvdGV4dD48cGF0aCBkPSJNNjA5LjUsMjYyLjUzOTEgQzYwOS41LDI1Mi41MzkxIDYyNy41LDI1Mi41MzkxIDYyNy41LDI1Mi41MzkxIEM2MjcuNSwyNTIuNTM5MSA2NDUuNSwyNTIuNTM5MSA2NDUuNSwyNjIuNTM5MSBMNjQ1LjUsMjg4LjUzOTEgQzY0NS41LDI5OC41MzkxIDYyNy41LDI5OC41MzkxIDYyNy41LDI5OC41MzkxIEM2MjcuNSwyOTguNTM5MSA2MDkuNSwyOTguNTM5MSA2MDkuNSwyODguNTM5MSBMNjA5LjUsMjYyLjUzOTEgIiBmaWxsPSIjRTJFMkYwIiBzdHlsZT0ic3Ryb2tlOiMxODE4MTg7c3Ryb2tlLXdpZHRoOjEuNTsiLz48cGF0aCBkPSJNNjA5LjUsMjYyLjUzOTEgQzYwOS41LDI3Mi41MzkxIDYyNy41LDI3Mi41MzkxIDYyNy41LDI3Mi41MzkxIEM2MjcuNSwyNzIuNTM5MSA2NDUuNSwyNzIuNTM5MSA2NDUuNSwyNjIuNTM5MSAiIGZpbGw9Im5vbmUiIHN0eWxlPSJzdHJva2U6IzE4MTgxODtzdHJva2Utd2lkdGg6MS41OyIvPjxyZWN0IGZpbGw9IiNGRkZGRkYiIGhlaWdodD0iMTI0LjY1NjMiIHN0eWxlPSJzdHJva2U6IzE4MTgxODtzdHJva2Utd2lkdGg6MS4wOyIgd2lkdGg9IjEwIiB4PSIyOTguNSIgeT0iOTUuODk4NCIvPjxyZWN0IGZpbGw9IiNGRkZGRkYiIGhlaWdodD0iMjcuOTE0MSIgc3R5bGU9InN0cm9rZTojMTgxODE4O3N0cm9rZS13aWR0aDoxLjA7IiB3aWR0aD0iMTAiIHg9IjYyMi41IiB5PSIxMjMuODEyNSIvPjxwb2x5Z29uIGZpbGw9IiMxODE4MTgiIHBvaW50cz0iMjg2LjUsOTEuODk4NCwyOTYuNSw5NS44OTg0LDI4Ni41LDk5Ljg5ODQsMjkwLjUsOTUuODk4NCIgc3R5bGU9InN0cm9rZTojMTgxODE4O3N0cm9rZS13aWR0aDoxLjA7Ii8+PGxpbmUgc3R5bGU9InN0cm9rZTojMTgxODE4O3N0cm9rZS13aWR0aDoxLjA7IiB4MT0iNTAuNSIgeDI9IjI5Mi41IiB5MT0iOTUuODk4NCIgeTI9Ijk1Ljg5ODQiLz48dGV4dCBmaWxsPSIjMDAwMDAwIiBmb250LWZhbWlseT0ic2Fucy1zZXJpZiIgZm9udC1zaXplPSIxMyIgbGVuZ3RoQWRqdXN0PSJzcGFjaW5nIiB0ZXh0TGVuZ3RoPSIxNjUiIHg9IjU3LjUiIHk9IjkyLjI3MzQiPlkmIzIzNDt1IGMmIzc4NDc7dSB0JiMyMjQ7aSBraG8mIzc4NDM7biBPcGVuQUk8L3RleHQ+PHBvbHlnb24gZmlsbD0iIzE4MTgxOCIgcG9pbnRzPSI2MTAuNSwxMTkuODEyNSw2MjAuNSwxMjMuODEyNSw2MTAuNSwxMjcuODEyNSw2MTQuNSwxMjMuODEyNSIgc3R5bGU9InN0cm9rZTojMTgxODE4O3N0cm9rZS13aWR0aDoxLjA7Ii8+PGxpbmUgc3R5bGU9InN0cm9rZTojMTgxODE4O3N0cm9rZS13aWR0aDoxLjA7IiB4MT0iMzA4LjUiIHgyPSI2MTYuNSIgeTE9IjEyMy44MTI1IiB5Mj0iMTIzLjgxMjUiLz48dGV4dCBmaWxsPSIjMDAwMDAwIiBmb250LWZhbWlseT0ic2Fucy1zZXJpZiIgZm9udC1zaXplPSIxMyIgbGVuZ3RoQWRqdXN0PSJzcGFjaW5nIiB0ZXh0TGVuZ3RoPSIyMzQiIHg9IjMxNS41IiB5PSIxMjAuMTg3NSI+VHJ1eSB2JiM3ODQ1O24gdCYjMjI0O2kga2hvJiM3ODQzO24gT3BlbkFJIGtoJiM3ODQzOyBkJiM3OTA5O25nPC90ZXh0Pjxwb2x5Z29uIGZpbGw9IiMxODE4MTgiIHBvaW50cz0iMzE5LjUsMTQ3LjcyNjYsMzA5LjUsMTUxLjcyNjYsMzE5LjUsMTU1LjcyNjYsMzE1LjUsMTUxLjcyNjYiIHN0eWxlPSJzdHJva2U6IzE4MTgxODtzdHJva2Utd2lkdGg6MS4wOyIvPjxsaW5lIHN0eWxlPSJzdHJva2U6IzE4MTgxODtzdHJva2Utd2lkdGg6MS4wO3N0cm9rZS1kYXNoYXJyYXk6Mi4wLDIuMDsiIHgxPSIzMTMuNSIgeDI9IjYyNi41IiB5MT0iMTUxLjcyNjYiIHkyPSIxNTEuNzI2NiIvPjx0ZXh0IGZpbGw9IiMwMDAwMDAiIGZvbnQtZmFtaWx5PSJzYW5zLXNlcmlmIiBmb250LXNpemU9IjEzIiBsZW5ndGhBZGp1c3Q9InNwYWNpbmciIHRleHRMZW5ndGg9IjI4OCIgeD0iMzI1LjUiIHk9IjE0OC4xMDE2Ij5UciYjNzg0MzsgdiYjNzg3MzsgdCYjMjI0O2kga2hvJiM3ODQzO24gKGhvJiM3ODYzO2MgdGgmIzI0NDtuZyBiJiMyMjU7byBraCYjMjQ0O25nIGMmIzI0MzspPC90ZXh0PjxsaW5lIHN0eWxlPSJzdHJva2U6IzE4MTgxODtzdHJva2Utd2lkdGg6MS4wOyIgeDE9IjMwOC41IiB4Mj0iMzUwLjUiIHkxPSIxNzkuNjQwNiIgeTI9IjE3OS42NDA2Ii8+PGxpbmUgc3R5bGU9InN0cm9rZTojMTgxODE4O3N0cm9rZS13aWR0aDoxLjA7IiB4MT0iMzUwLjUiIHgyPSIzNTAuNSIgeTE9IjE3OS42NDA2IiB5Mj0iMTkyLjY0MDYiLz48bGluZSBzdHlsZT0ic3Ryb2tlOiMxODE4MTg7c3Ryb2tlLXdpZHRoOjEuMDsiIHgxPSIzMDkuNSIgeDI9IjM1MC41IiB5MT0iMTkyLjY0MDYiIHkyPSIxOTIuNjQwNiIvPjxwb2x5Z29uIGZpbGw9IiMxODE4MTgiIHBvaW50cz0iMzE5LjUsMTg4LjY0MDYsMzA5LjUsMTkyLjY0MDYsMzE5LjUsMTk2LjY0MDYsMzE1LjUsMTkyLjY0MDYiIHN0eWxlPSJzdHJva2U6IzE4MTgxODtzdHJva2Utd2lkdGg6MS4wOyIvPjx0ZXh0IGZpbGw9IiMwMDAwMDAiIGZvbnQtZmFtaWx5PSJzYW5zLXNlcmlmIiBmb250LXNpemU9IjEzIiBsZW5ndGhBZGp1c3Q9InNwYWNpbmciIHRleHRMZW5ndGg9IjMwMCIgeD0iMzE1LjUiIHk9IjE3Ni4wMTU2Ij5DJiM3ODUzO3AgbmgmIzc4NTM7dCB0ciYjNzg0MTtuZyB0aCYjMjI1O2kgdCYjMjI0O2kga2hvJiM3ODQzO24gKCYjMjczO2FuZyBzJiM3OTE3OyBkJiM3OTA5O25nKTwvdGV4dD48cG9seWdvbiBmaWxsPSIjMTgxODE4IiBwb2ludHM9IjYxLjUsMjE2LjU1NDcsNTEuNSwyMjAuNTU0Nyw2MS41LDIyNC41NTQ3LDU3LjUsMjIwLjU1NDciIHN0eWxlPSJzdHJva2U6IzE4MTgxODtzdHJva2Utd2lkdGg6MS4wOyIvPjxsaW5lIHN0eWxlPSJzdHJva2U6IzE4MTgxODtzdHJva2Utd2lkdGg6MS4wO3N0cm9rZS1kYXNoYXJyYXk6Mi4wLDIuMDsiIHgxPSI1NS41IiB4Mj0iMzAyLjUiIHkxPSIyMjAuNTU0NyIgeTI9IjIyMC41NTQ3Ii8+PHRleHQgZmlsbD0iIzAwMDAwMCIgZm9udC1mYW1pbHk9InNhbnMtc2VyaWYiIGZvbnQtc2l6ZT0iMTMiIGxlbmd0aEFkanVzdD0ic3BhY2luZyIgdGV4dExlbmd0aD0iMjI0IiB4PSI2Ny41IiB5PSIyMTYuOTI5NyI+VHImIzc4NDM7IHYmIzc4NzM7IHRoJiMyNDQ7bmcgdGluIHQmIzIyNDtpIGtobyYjNzg0MztuIE9wZW5BSTwvdGV4dD48IS0tU1JDPVtSUDR6UWlHbTQ4THhkTUJBUkI0TnMyQW1SOWVLOE9zUmJCRW95OGc1aVIzN1hmR3ZHY3VHaW9vMVdBaTQwZFFmTjRHdG9KWFA5X3doREFGN1ZFLUR2MzFaZ3dyM09lV21GenVYT004b3ZHUnRNd3RKV2hZTk9jSlNPc3hXdmI4ZURQWTR6VkxhTzBDRl9ncTA3UGhOMGpZX00zV1VxajJTMkV3VGVVc2pHaXNzSDNQSmV0N1JXTmw3M0tIUHlHWGJRQ3dxWDlITUVlWDNVd1JhZF95TmsyeldsUDBzb2hoUENoSEZPX0hMVHR2Z3U4Rl9lMEpzbGFmNS13Y3JWci1mc0NvRHZZakN0TlFYZ0hzR3ZBcVBNQW1odU9iNVBJVmtOeXllSVh4US1oQk5RYU9OX0UwZG5mbHkxY014LTV4M3g2RmVEbTAwXS0tPjwvZz48L3N2Zz4=;" vertex="1" parent="1">
            <mxGeometry x="130" y="1660" width="662" height="315" as="geometry" />
          </mxCell>
        </UserObject>
        <mxCell id="y0Gl-J4qWdipeQP6zF-s-7" value="&lt;b&gt;c. Luồng Xử lý Lỗi:&lt;/b&gt;" style="text;html=1;align=center;verticalAlign=middle;resizable=0;points=[];autosize=1;strokeColor=none;fillColor=none;" vertex="1" parent="1">
          <mxGeometry x="85.5" y="2040" width="130" height="30" as="geometry" />
        </mxCell>
        <UserObject label="" plantUmlData="{&#xa;  &quot;data&quot;: &quot;@startuml\nparticipant Kafka\nparticipant OpenAIWorker\nparticipant AccountManager\n\nKafka -&gt; OpenAIWorker: Subtask (OpenAI)\nactivate OpenAIWorker\nOpenAIWorker -&gt; OpenAIWorker: Gọi API OpenAI\nalt API OpenAI trả về lỗi\n    OpenAIWorker -&gt; AccountManager: Báo lỗi tài khoản OpenAI\n    activate AccountManager\n    AccountManager -&gt; AccountManager: Đánh dấu tài khoản là không khả dụng\n    AccountManager --&gt; OpenAIWorker: Thông báo lỗi\n    deactivate AccountManager\n    OpenAIWorker --&gt; Kafka: Báo lỗi subtask (ghi vào dead-letter queue)\n    deactivate OpenAIWorker\nelse Thành công\n    OpenAIWorker --&gt; Kafka: Trả kết quả\n    deactivate OpenAIWorker\nend\n\n@enduml&quot;,&#xa;  &quot;format&quot;: &quot;svg&quot;&#xa;}" id="y0Gl-J4qWdipeQP6zF-s-8">
          <mxCell style="shape=image;noLabel=1;verticalAlign=top;aspect=fixed;imageAspect=0;image=data:image/svg+xml,PD94bWwgdmVyc2lvbj0iMS4wIiBlbmNvZGluZz0idXMtYXNjaWkiIHN0YW5kYWxvbmU9Im5vIj8+PHN2ZyB4bWxucz0iaHR0cDovL3d3dy53My5vcmcvMjAwMC9zdmciIHhtbG5zOnhsaW5rPSJodHRwOi8vd3d3LnczLm9yZy8xOTk5L3hsaW5rIiBjb250ZW50U3R5bGVUeXBlPSJ0ZXh0L2NzcyIgaGVpZ2h0PSIzNTRweCIgcHJlc2VydmVBc3BlY3RSYXRpbz0ibm9uZSIgc3R5bGU9IndpZHRoOjgzN3B4O2hlaWdodDozNTRweDtiYWNrZ3JvdW5kOiNGRkZGRkY7IiB2ZXJzaW9uPSIxLjEiIHZpZXdCb3g9IjAgMCA4MzcgMzU0IiB3aWR0aD0iODM3cHgiIHpvb21BbmRQYW49Im1hZ25pZnkiPjxkZWZzLz48Zz48cmVjdCBmaWxsPSIjRkZGRkZGIiBoZWlnaHQ9IjE4OC40ODQ0IiBzdHlsZT0ic3Ryb2tlOiMxODE4MTg7c3Ryb2tlLXdpZHRoOjEuMDsiIHdpZHRoPSIxMCIgeD0iMzYwLjUiIHk9IjY0Ljg5ODQiLz48cmVjdCBmaWxsPSIjRkZGRkZGIiBoZWlnaHQ9IjY4LjgyODEiIHN0eWxlPSJzdHJva2U6IzE4MTgxODtzdHJva2Utd2lkdGg6MS4wOyIgd2lkdGg9IjEwIiB4PSI1NTIuNSIgeT0iMTU2LjY0MDYiLz48cmVjdCBmaWxsPSJub25lIiBoZWlnaHQ9IjE4Mi4yNTc4IiBzdHlsZT0ic3Ryb2tlOiMwMDAwMDA7c3Ryb2tlLXdpZHRoOjEuNTsiIHdpZHRoPSI4MjAuNSIgeD0iMTAiIHk9IjEyMC44MTI1Ii8+PGxpbmUgc3R5bGU9InN0cm9rZTojMTgxODE4O3N0cm9rZS13aWR0aDowLjU7c3Ryb2tlLWRhc2hhcnJheTo1LjAsNS4wOyIgeDE9IjQ0IiB4Mj0iNDQiIHkxPSIzNC45ODQ0IiB5Mj0iMzIwLjA3MDMiLz48bGluZSBzdHlsZT0ic3Ryb2tlOiMxODE4MTg7c3Ryb2tlLXdpZHRoOjAuNTtzdHJva2UtZGFzaGFycmF5OjUuMCw1LjA7IiB4MT0iMzY1LjUiIHgyPSIzNjUuNSIgeTE9IjM0Ljk4NDQiIHkyPSIzMjAuMDcwMyIvPjxsaW5lIHN0eWxlPSJzdHJva2U6IzE4MTgxODtzdHJva2Utd2lkdGg6MC41O3N0cm9rZS1kYXNoYXJyYXk6NS4wLDUuMDsiIHgxPSI1NTcuNSIgeDI9IjU1Ny41IiB5MT0iMzQuOTg0NCIgeTI9IjMyMC4wNzAzIi8+PHJlY3QgZmlsbD0iI0UyRTJGMCIgaGVpZ2h0PSIyOC45ODQ0IiByeD0iMi41IiByeT0iMi41IiBzdHlsZT0ic3Ryb2tlOiMxODE4MTg7c3Ryb2tlLXdpZHRoOjAuNTsiIHdpZHRoPSI0OSIgeD0iMjAiIHk9IjUiLz48dGV4dCBmaWxsPSIjMDAwMDAwIiBmb250LWZhbWlseT0ic2Fucy1zZXJpZiIgZm9udC1zaXplPSIxNCIgbGVuZ3RoQWRqdXN0PSJzcGFjaW5nIiB0ZXh0TGVuZ3RoPSIzNSIgeD0iMjciIHk9IjI1LjIzNDQiPkthZmthPC90ZXh0PjxyZWN0IGZpbGw9IiNFMkUyRjAiIGhlaWdodD0iMjguOTg0NCIgcng9IjIuNSIgcnk9IjIuNSIgc3R5bGU9InN0cm9rZTojMTgxODE4O3N0cm9rZS13aWR0aDowLjU7IiB3aWR0aD0iNDkiIHg9IjIwIiB5PSIzMTkuMDcwMyIvPjx0ZXh0IGZpbGw9IiMwMDAwMDAiIGZvbnQtZmFtaWx5PSJzYW5zLXNlcmlmIiBmb250LXNpemU9IjE0IiBsZW5ndGhBZGp1c3Q9InNwYWNpbmciIHRleHRMZW5ndGg9IjM1IiB4PSIyNyIgeT0iMzM5LjMwNDciPkthZmthPC90ZXh0PjxyZWN0IGZpbGw9IiNFMkUyRjAiIGhlaWdodD0iMjguOTg0NCIgcng9IjIuNSIgcnk9IjIuNSIgc3R5bGU9InN0cm9rZTojMTgxODE4O3N0cm9rZS13aWR0aDowLjU7IiB3aWR0aD0iOTgiIHg9IjMxNi41IiB5PSI1Ii8+PHRleHQgZmlsbD0iIzAwMDAwMCIgZm9udC1mYW1pbHk9InNhbnMtc2VyaWYiIGZvbnQtc2l6ZT0iMTQiIGxlbmd0aEFkanVzdD0ic3BhY2luZyIgdGV4dExlbmd0aD0iODQiIHg9IjMyMy41IiB5PSIyNS4yMzQ0Ij5PcGVuQUlXb3JrZXI8L3RleHQ+PHJlY3QgZmlsbD0iI0UyRTJGMCIgaGVpZ2h0PSIyOC45ODQ0IiByeD0iMi41IiByeT0iMi41IiBzdHlsZT0ic3Ryb2tlOiMxODE4MTg7c3Ryb2tlLXdpZHRoOjAuNTsiIHdpZHRoPSI5OCIgeD0iMzE2LjUiIHk9IjMxOS4wNzAzIi8+PHRleHQgZmlsbD0iIzAwMDAwMCIgZm9udC1mYW1pbHk9InNhbnMtc2VyaWYiIGZvbnQtc2l6ZT0iMTQiIGxlbmd0aEFkanVzdD0ic3BhY2luZyIgdGV4dExlbmd0aD0iODQiIHg9IjMyMy41IiB5PSIzMzkuMzA0NyI+T3BlbkFJV29ya2VyPC90ZXh0PjxyZWN0IGZpbGw9IiNFMkUyRjAiIGhlaWdodD0iMjguOTg0NCIgcng9IjIuNSIgcnk9IjIuNSIgc3R5bGU9InN0cm9rZTojMTgxODE4O3N0cm9rZS13aWR0aDowLjU7IiB3aWR0aD0iMTEyIiB4PSI1MDEuNSIgeT0iNSIvPjx0ZXh0IGZpbGw9IiMwMDAwMDAiIGZvbnQtZmFtaWx5PSJzYW5zLXNlcmlmIiBmb250LXNpemU9IjE0IiBsZW5ndGhBZGp1c3Q9InNwYWNpbmciIHRleHRMZW5ndGg9Ijk4IiB4PSI1MDguNSIgeT0iMjUuMjM0NCI+QWNjb3VudE1hbmFnZXI8L3RleHQ+PHJlY3QgZmlsbD0iI0UyRTJGMCIgaGVpZ2h0PSIyOC45ODQ0IiByeD0iMi41IiByeT0iMi41IiBzdHlsZT0ic3Ryb2tlOiMxODE4MTg7c3Ryb2tlLXdpZHRoOjAuNTsiIHdpZHRoPSIxMTIiIHg9IjUwMS41IiB5PSIzMTkuMDcwMyIvPjx0ZXh0IGZpbGw9IiMwMDAwMDAiIGZvbnQtZmFtaWx5PSJzYW5zLXNlcmlmIiBmb250LXNpemU9IjE0IiBsZW5ndGhBZGp1c3Q9InNwYWNpbmciIHRleHRMZW5ndGg9Ijk4IiB4PSI1MDguNSIgeT0iMzM5LjMwNDciPkFjY291bnRNYW5hZ2VyPC90ZXh0PjxyZWN0IGZpbGw9IiNGRkZGRkYiIGhlaWdodD0iMTg4LjQ4NDQiIHN0eWxlPSJzdHJva2U6IzE4MTgxODtzdHJva2Utd2lkdGg6MS4wOyIgd2lkdGg9IjEwIiB4PSIzNjAuNSIgeT0iNjQuODk4NCIvPjxyZWN0IGZpbGw9IiNGRkZGRkYiIGhlaWdodD0iNjguODI4MSIgc3R5bGU9InN0cm9rZTojMTgxODE4O3N0cm9rZS13aWR0aDoxLjA7IiB3aWR0aD0iMTAiIHg9IjU1Mi41IiB5PSIxNTYuNjQwNiIvPjxwb2x5Z29uIGZpbGw9IiMxODE4MTgiIHBvaW50cz0iMzQ4LjUsNjAuODk4NCwzNTguNSw2NC44OTg0LDM0OC41LDY4Ljg5ODQsMzUyLjUsNjQuODk4NCIgc3R5bGU9InN0cm9rZTojMTgxODE4O3N0cm9rZS13aWR0aDoxLjA7Ii8+PGxpbmUgc3R5bGU9InN0cm9rZTojMTgxODE4O3N0cm9rZS13aWR0aDoxLjA7IiB4MT0iNDQuNSIgeDI9IjM1NC41IiB5MT0iNjQuODk4NCIgeTI9IjY0Ljg5ODQiLz48dGV4dCBmaWxsPSIjMDAwMDAwIiBmb250LWZhbWlseT0ic2Fucy1zZXJpZiIgZm9udC1zaXplPSIxMyIgbGVuZ3RoQWRqdXN0PSJzcGFjaW5nIiB0ZXh0TGVuZ3RoPSIxMDgiIHg9IjUxLjUiIHk9IjYxLjI3MzQiPlN1YnRhc2sgKE9wZW5BSSk8L3RleHQ+PGxpbmUgc3R5bGU9InN0cm9rZTojMTgxODE4O3N0cm9rZS13aWR0aDoxLjA7IiB4MT0iMzcwLjUiIHgyPSI0MTIuNSIgeTE9IjkyLjgxMjUiIHkyPSI5Mi44MTI1Ii8+PGxpbmUgc3R5bGU9InN0cm9rZTojMTgxODE4O3N0cm9rZS13aWR0aDoxLjA7IiB4MT0iNDEyLjUiIHgyPSI0MTIuNSIgeTE9IjkyLjgxMjUiIHkyPSIxMDUuODEyNSIvPjxsaW5lIHN0eWxlPSJzdHJva2U6IzE4MTgxODtzdHJva2Utd2lkdGg6MS4wOyIgeDE9IjM3MS41IiB4Mj0iNDEyLjUiIHkxPSIxMDUuODEyNSIgeTI9IjEwNS44MTI1Ii8+PHBvbHlnb24gZmlsbD0iIzE4MTgxOCIgcG9pbnRzPSIzODEuNSwxMDEuODEyNSwzNzEuNSwxMDUuODEyNSwzODEuNSwxMDkuODEyNSwzNzcuNSwxMDUuODEyNSIgc3R5bGU9InN0cm9rZTojMTgxODE4O3N0cm9rZS13aWR0aDoxLjA7Ii8+PHRleHQgZmlsbD0iIzAwMDAwMCIgZm9udC1mYW1pbHk9InNhbnMtc2VyaWYiIGZvbnQtc2l6ZT0iMTMiIGxlbmd0aEFkanVzdD0ic3BhY2luZyIgdGV4dExlbmd0aD0iOTUiIHg9IjM3Ny41IiB5PSI4OS4xODc1Ij5HJiM3ODg1O2kgQVBJIE9wZW5BSTwvdGV4dD48cGF0aCBkPSJNMTAsMTIwLjgxMjUgTDc0LDEyMC44MTI1IEw3NCwxMjYuNzI2NiBMNjQsMTM2LjcyNjYgTDEwLDEzNi43MjY2IEwxMCwxMjAuODEyNSAiIGZpbGw9IiNFRUVFRUUiIHN0eWxlPSJzdHJva2U6IzAwMDAwMDtzdHJva2Utd2lkdGg6MS41OyIvPjxyZWN0IGZpbGw9Im5vbmUiIGhlaWdodD0iMTgyLjI1NzgiIHN0eWxlPSJzdHJva2U6IzAwMDAwMDtzdHJva2Utd2lkdGg6MS41OyIgd2lkdGg9IjgyMC41IiB4PSIxMCIgeT0iMTIwLjgxMjUiLz48dGV4dCBmaWxsPSIjMDAwMDAwIiBmb250LWZhbWlseT0ic2Fucy1zZXJpZiIgZm9udC1zaXplPSIxMyIgZm9udC13ZWlnaHQ9ImJvbGQiIGxlbmd0aEFkanVzdD0ic3BhY2luZyIgdGV4dExlbmd0aD0iMTkiIHg9IjI1IiB5PSIxMzQuMTAxNiI+YWx0PC90ZXh0Pjx0ZXh0IGZpbGw9IiMwMDAwMDAiIGZvbnQtZmFtaWx5PSJzYW5zLXNlcmlmIiBmb250LXNpemU9IjExIiBmb250LXdlaWdodD0iYm9sZCIgbGVuZ3RoQWRqdXN0PSJzcGFjaW5nIiB0ZXh0TGVuZ3RoPSIxMzgiIHg9Ijg5IiB5PSIxMzMuMjEwOSI+W0FQSSBPcGVuQUkgdHImIzc4NDM7IHYmIzc4NzM7IGwmIzc4OTU7aV08L3RleHQ+PHBvbHlnb24gZmlsbD0iIzE4MTgxOCIgcG9pbnRzPSI1NDAuNSwxNTIuNjQwNiw1NTAuNSwxNTYuNjQwNiw1NDAuNSwxNjAuNjQwNiw1NDQuNSwxNTYuNjQwNiIgc3R5bGU9InN0cm9rZTojMTgxODE4O3N0cm9rZS13aWR0aDoxLjA7Ii8+PGxpbmUgc3R5bGU9InN0cm9rZTojMTgxODE4O3N0cm9rZS13aWR0aDoxLjA7IiB4MT0iMzcwLjUiIHgyPSI1NDYuNSIgeTE9IjE1Ni42NDA2IiB5Mj0iMTU2LjY0MDYiLz48dGV4dCBmaWxsPSIjMDAwMDAwIiBmb250LWZhbWlseT0ic2Fucy1zZXJpZiIgZm9udC1zaXplPSIxMyIgbGVuZ3RoQWRqdXN0PSJzcGFjaW5nIiB0ZXh0TGVuZ3RoPSIxNjMiIHg9IjM3Ny41IiB5PSIxNTMuMDE1NiI+QiYjMjI1O28gbCYjNzg5NTtpIHQmIzIyNDtpIGtobyYjNzg0MztuIE9wZW5BSTwvdGV4dD48bGluZSBzdHlsZT0ic3Ryb2tlOiMxODE4MTg7c3Ryb2tlLXdpZHRoOjEuMDsiIHgxPSI1NjIuNSIgeDI9IjYwNC41IiB5MT0iMTg0LjU1NDciIHkyPSIxODQuNTU0NyIvPjxsaW5lIHN0eWxlPSJzdHJva2U6IzE4MTgxODtzdHJva2Utd2lkdGg6MS4wOyIgeDE9IjYwNC41IiB4Mj0iNjA0LjUiIHkxPSIxODQuNTU0NyIgeTI9IjE5Ny41NTQ3Ii8+PGxpbmUgc3R5bGU9InN0cm9rZTojMTgxODE4O3N0cm9rZS13aWR0aDoxLjA7IiB4MT0iNTYzLjUiIHgyPSI2MDQuNSIgeTE9IjE5Ny41NTQ3IiB5Mj0iMTk3LjU1NDciLz48cG9seWdvbiBmaWxsPSIjMTgxODE4IiBwb2ludHM9IjU3My41LDE5My41NTQ3LDU2My41LDE5Ny41NTQ3LDU3My41LDIwMS41NTQ3LDU2OS41LDE5Ny41NTQ3IiBzdHlsZT0ic3Ryb2tlOiMxODE4MTg7c3Ryb2tlLXdpZHRoOjEuMDsiLz48dGV4dCBmaWxsPSIjMDAwMDAwIiBmb250LWZhbWlseT0ic2Fucy1zZXJpZiIgZm9udC1zaXplPSIxMyIgbGVuZ3RoQWRqdXN0PSJzcGFjaW5nIiB0ZXh0TGVuZ3RoPSIyNDkiIHg9IjU2OS41IiB5PSIxODAuOTI5NyI+JiMyNzI7JiMyMjU7bmggZCYjNzg0NTt1IHQmIzIyNDtpIGtobyYjNzg0MztuIGwmIzIyNDsga2gmIzI0NDtuZyBraCYjNzg0MzsgZCYjNzkwOTtuZzwvdGV4dD48cG9seWdvbiBmaWxsPSIjMTgxODE4IiBwb2ludHM9IjM4MS41LDIyMS40Njg4LDM3MS41LDIyNS40Njg4LDM4MS41LDIyOS40Njg4LDM3Ny41LDIyNS40Njg4IiBzdHlsZT0ic3Ryb2tlOiMxODE4MTg7c3Ryb2tlLXdpZHRoOjEuMDsiLz48bGluZSBzdHlsZT0ic3Ryb2tlOiMxODE4MTg7c3Ryb2tlLXdpZHRoOjEuMDtzdHJva2UtZGFzaGFycmF5OjIuMCwyLjA7IiB4MT0iMzc1LjUiIHgyPSI1NTYuNSIgeTE9IjIyNS40Njg4IiB5Mj0iMjI1LjQ2ODgiLz48dGV4dCBmaWxsPSIjMDAwMDAwIiBmb250LWZhbWlseT0ic2Fucy1zZXJpZiIgZm9udC1zaXplPSIxMyIgbGVuZ3RoQWRqdXN0PSJzcGFjaW5nIiB0ZXh0TGVuZ3RoPSI4OCIgeD0iMzg3LjUiIHk9IjIyMS44NDM4Ij5UaCYjMjQ0O25nIGImIzIyNTtvIGwmIzc4OTU7aTwvdGV4dD48cG9seWdvbiBmaWxsPSIjMTgxODE4IiBwb2ludHM9IjU1LjUsMjQ5LjM4MjgsNDUuNSwyNTMuMzgyOCw1NS41LDI1Ny4zODI4LDUxLjUsMjUzLjM4MjgiIHN0eWxlPSJzdHJva2U6IzE4MTgxODtzdHJva2Utd2lkdGg6MS4wOyIvPjxsaW5lIHN0eWxlPSJzdHJva2U6IzE4MTgxODtzdHJva2Utd2lkdGg6MS4wO3N0cm9rZS1kYXNoYXJyYXk6Mi4wLDIuMDsiIHgxPSI0OS41IiB4Mj0iMzY0LjUiIHkxPSIyNTMuMzgyOCIgeTI9IjI1My4zODI4Ii8+PHRleHQgZmlsbD0iIzAwMDAwMCIgZm9udC1mYW1pbHk9InNhbnMtc2VyaWYiIGZvbnQtc2l6ZT0iMTMiIGxlbmd0aEFkanVzdD0ic3BhY2luZyIgdGV4dExlbmd0aD0iMjkyIiB4PSI2MS41IiB5PSIyNDkuNzU3OCI+QiYjMjI1O28gbCYjNzg5NTtpIHN1YnRhc2sgKGdoaSB2JiMyMjQ7byBkZWFkLWxldHRlciBxdWV1ZSk8L3RleHQ+PGxpbmUgc3R5bGU9InN0cm9rZTojMDAwMDAwO3N0cm9rZS13aWR0aDoxLjA7c3Ryb2tlLWRhc2hhcnJheToyLjAsMi4wOyIgeDE9IjEwIiB4Mj0iODMwLjUiIHkxPSIyNjIuMzgyOCIgeTI9IjI2Mi4zODI4Ii8+PHRleHQgZmlsbD0iIzAwMDAwMCIgZm9udC1mYW1pbHk9InNhbnMtc2VyaWYiIGZvbnQtc2l6ZT0iMTEiIGZvbnQtd2VpZ2h0PSJib2xkIiBsZW5ndGhBZGp1c3Q9InNwYWNpbmciIHRleHRMZW5ndGg9IjcyIiB4PSIxNSIgeT0iMjcyLjc4MTMiPltUaCYjMjI0O25oIGMmIzI0NDtuZ108L3RleHQ+PHBvbHlnb24gZmlsbD0iIzE4MTgxOCIgcG9pbnRzPSI1NS41LDI5MS4wNzAzLDQ1LjUsMjk1LjA3MDMsNTUuNSwyOTkuMDcwMyw1MS41LDI5NS4wNzAzIiBzdHlsZT0ic3Ryb2tlOiMxODE4MTg7c3Ryb2tlLXdpZHRoOjEuMDsiLz48bGluZSBzdHlsZT0ic3Ryb2tlOiMxODE4MTg7c3Ryb2tlLXdpZHRoOjEuMDtzdHJva2UtZGFzaGFycmF5OjIuMCwyLjA7IiB4MT0iNDkuNSIgeDI9IjM2NC41IiB5MT0iMjk1LjA3MDMiIHkyPSIyOTUuMDcwMyIvPjx0ZXh0IGZpbGw9IiMwMDAwMDAiIGZvbnQtZmFtaWx5PSJzYW5zLXNlcmlmIiBmb250LXNpemU9IjEzIiBsZW5ndGhBZGp1c3Q9InNwYWNpbmciIHRleHRMZW5ndGg9Ijc1IiB4PSI2MS41IiB5PSIyOTEuNDQ1MyI+VHImIzc4NDM7IGsmIzc4NzE7dCBxdSYjNzg0Mzs8L3RleHQ+PCEtLVNSQz1bVlA2bkppQ200OFJ0RkNNRFRFV0JUNDFBNXJHWDExQUxjQS1FSVFuNEphWkVzTmMwSWNvaWdMM1ZXMmFQNkNvQi00c200cmg1UUhLbGprX3lWX1Z4aGkySTExQzVJZTl4VjRxbkE0UUhudUJCU0ZFSWJvYWxsS0o4TUF1YUZRMzRzQVEyTldoQk1xLW5XY1VyOHduSWsxZDJZbTBQWUhnOS0gLUpudkg5b1B4Z3pXRjFmeW55RkNBRkg1UVdxeEhWS2ZkazdwN0lWOFcyeGZhWlZ5MGhNLWYwRnB1NXE4bzFEU2FrSGZuOEVTVk93LVFwQi1RNWgxTnVfejQ0YzQ5ZHNnRm1JY014aU1OX0JzNnhFVWNJd2V1b2xTWS1RaUhzNGt4RnpOWFJuRVJELUJvb29kdlJOVy1lcWczV0hLRWljVHlYZWNONFlndGJKTkY3NWo5OHRHZnZMdDliaHg5LVBpcFhSVVRrRkIzTmozcmN1RlMtcFBWRzddLS0+PC9nPjwvc3ZnPg==;" vertex="1" parent="1">
            <mxGeometry x="100" y="2090" width="837" height="354" as="geometry" />
          </mxCell>
        </UserObject>
        <mxCell id="y0Gl-J4qWdipeQP6zF-s-9" value="&lt;b&gt;3. Thiết kế Kiến trúc hệ thống (Microservice Architecture):&lt;/b&gt;" style="text;html=1;align=center;verticalAlign=middle;resizable=0;points=[];autosize=1;strokeColor=none;fillColor=none;" vertex="1" parent="1">
          <mxGeometry x="75" y="2530" width="350" height="30" as="geometry" />
        </mxCell>
      </root>
    </mxGraphModel>
  </diagram>
</mxfile>
